<svg id="_59725d3d-bdd8-4af0-9b66-49b8d09410bc" data-name="59725d3d-bdd8-4af0-9b66-49b8d09410bc" xmlns="http://www.w3.org/2000/svg" xmlns:xlink="http://www.w3.org/1999/xlink" viewBox="0 0 1041.28 554.14">
  <defs>
    <style>
      .cls-1 {
        opacity: 0.2;
        fill: url(#linear-gradient);
      }

      .cls-2 {
        opacity: 0.4;
      }

      .cls-3 {
        fill: #fff;
      }

      .cls-4 {
        fill: url(#linear-gradient-2);
      }

      .cls-5 {
        fill: url(#linear-gradient-3);
      }

      .cls-6 {
        fill: url(#linear-gradient-4);
      }

      .cls-7 {
        fill: url(#linear-gradient-5);
      }

      .cls-8 {
        fill: #3f3d56;
      }

      .cls-9 {
        fill: #231a6b;
      }

      .cls-10 {
        opacity: 0.2;
      }

      .cls-10, .cls-11 {
        isolation: isolate;
      }

      .cls-11, .cls-19 {
        opacity: 0.1;
      }

      .cls-12 {
        fill: #d6d6d6;
      }

      .cls-13 {
        fill: #d4dfec;
      }

      .cls-14 {
        fill: #fbbebe;
      }

      .cls-15 {
        fill: url(#linear-gradient-6);
      }

      .cls-16 {
        fill: url(#linear-gradient-7);
      }

      .cls-17 {
        fill: url(#linear-gradient-8);
      }

      .cls-18 {
        fill: url(#linear-gradient-9);
      }

      .cls-20, .cls-21, .cls-22, .cls-23, .cls-24, .cls-25 {
        fill: none;
        stroke-miterlimit: 10;
        stroke-width: 5px;
      }

      .cls-20 {
        stroke: url(#linear-gradient-10);
      }

      .cls-21 {
        stroke: url(#linear-gradient-11);
      }

      .cls-22 {
        stroke: url(#linear-gradient-12);
      }

      .cls-23 {
        stroke: url(#linear-gradient-13);
      }

      .cls-24 {
        stroke: url(#linear-gradient-14);
      }

      .cls-25 {
        stroke: url(#linear-gradient-15);
      }

      .cls-26 {
        fill: url(#linear-gradient-16);
      }
    </style>
    <linearGradient id="linear-gradient" x1="0.01" y1="277.05" x2="1041.29" y2="277.05" gradientUnits="userSpaceOnUse">
      <stop offset="0" stop-color="#593fff"/>
      <stop offset="1" stop-color="#974175"/>
    </linearGradient>
    <linearGradient id="linear-gradient-2" x1="85.26" y1="111.63" x2="1037.9" y2="111.63" xlink:href="#linear-gradient"/>
    <linearGradient id="linear-gradient-3" x1="685.75" y1="280.86" x2="696.87" y2="280.86" xlink:href="#linear-gradient"/>
    <linearGradient id="linear-gradient-4" x1="418.77" y1="306.82" x2="429.88" y2="306.82" xlink:href="#linear-gradient"/>
    <linearGradient id="linear-gradient-5" x1="10.91" y1="451.17" x2="958.01" y2="451.17" xlink:href="#linear-gradient"/>
    <linearGradient id="linear-gradient-6" x1="597.78" y1="-169.44" x2="597.78" y2="208.02" gradientTransform="matrix(1, 0, 0, -1, -79.34, 383.09)" gradientUnits="userSpaceOnUse">
      <stop offset="0" stop-color="gray" stop-opacity="0.25"/>
      <stop offset="0.54" stop-color="gray" stop-opacity="0.12"/>
      <stop offset="1" stop-color="gray" stop-opacity="0.1"/>
    </linearGradient>
    <linearGradient id="linear-gradient-7" x1="304.83" y1="447.68" x2="660.58" y2="447.68" xlink:href="#linear-gradient"/>
    <linearGradient id="linear-gradient-8" x1="436.46" y1="354.84" x2="543.66" y2="354.84" xlink:href="#linear-gradient"/>
    <linearGradient id="linear-gradient-9" x1="625.6" y1="491.63" x2="722.93" y2="491.63" xlink:href="#linear-gradient"/>
    <linearGradient id="linear-gradient-10" x1="205.95" y1="342.33" x2="307.61" y2="342.33" xlink:href="#linear-gradient"/>
    <linearGradient id="linear-gradient-11" x1="205.95" y1="355.28" x2="271.01" y2="355.28" xlink:href="#linear-gradient"/>
    <linearGradient id="linear-gradient-12" x1="205.95" y1="369.28" x2="256.81" y2="369.28" xlink:href="#linear-gradient"/>
    <linearGradient id="linear-gradient-13" x1="205.95" y1="410.19" x2="307.61" y2="410.19" xlink:href="#linear-gradient"/>
    <linearGradient id="linear-gradient-14" x1="205.95" y1="423.14" x2="271.01" y2="423.14" xlink:href="#linear-gradient"/>
    <linearGradient id="linear-gradient-15" x1="205.95" y1="437.14" x2="256.81" y2="437.14" xlink:href="#linear-gradient"/>
    <linearGradient id="linear-gradient-16" x1="790.18" y1="418.56" x2="923.86" y2="418.56" gradientTransform="matrix(0.63, -0.56, 0.42, 0.83, 149.6, 554.41)" xlink:href="#linear-gradient"/>
  </defs>
  <title>AboutMe</title>
  <path class="cls-1" d="M961.48,438.21q-1.74,3.75-3.47,7.4-2.7,5.67-5.33,11.12c-.78,1.61-1.56,3.19-2.32,4.77-8.6,17.57-16.63,33.11-23.45,45.89a73.21,73.21,0,0,1-63.81,38.7l-151.65,1.65h-1.6l-13,.14-11.12.12-34.1.37h-1.38l-17.36.19h-.53l-107,1.16-95.51,1-11.11.12-69,.75h-.08l-44.75.48h-.48l-141.5,1.53-42.33.46a88.07,88.07,0,0,1-26.67-3.82,86.39,86.39,0,0,1-39.09-24.75c-18.18-20-31.43-43.4-40.33-68.76q-1.93-5.49-3.6-11.12C-19.9,341.46,17.66,207.09,85.26,117.17q4.25-5.64,8.64-11l.07-.08c20.79-25.52,44.1-46.84,68.93-62,44-26.91,92.75-34.49,140.7-11.9,40.57,19.12,78.45,28.11,115.17,30.55,3.71.24,7.42.42,11.11.53C514.11,65.92,593,35.57,685.75,16c3.69-.78,7.39-1.55,11.12-2.28C763,.54,836.36-6.4,923.6,8.19a189.09,189.09,0,0,1,26.76,6.4q5.77,1.86,11.12,4c41.64,16.94,64.35,48.24,74,87.46q1.37,5.46,2.37,11.11C1055,211.5,1004.85,345.32,961.48,438.21Z" transform="translate(-0.01 -0.03)"/>
  <g class="cls-2">
    <path class="cls-3" d="M162.9,44.09V553.71l-42.33.46a88.07,88.07,0,0,1-26.67-3.82V106.09H94C114.76,80.54,138.07,59.22,162.9,44.09Z" transform="translate(-0.01 -0.03)"/>
    <path class="cls-4" d="M1037.9,117.17H85.26q4.25-5.64,8.64-11v-.08h941.63Q1036.9,111.52,1037.9,117.17Z" transform="translate(-0.01 -0.03)"/>
    <path class="cls-3" d="M961.48,18.6v427H958q-2.7,5.67-5.33,11.12c-.78,1.61-1.56,3.19-2.32,4.77V14.56Q956.13,16.42,961.48,18.6Z" transform="translate(-0.01 -0.03)"/>
    <path class="cls-5" d="M696.87,13.67V547.92l-11.12.12V15.95C689.44,15.17,693.14,14.4,696.87,13.67Z" transform="translate(-0.01 -0.03)"/>
    <path class="cls-6" d="M429.88,63.24V550.82l-11.11.12V62.71C422.48,62.95,426.19,63.09,429.88,63.24Z" transform="translate(-0.01 -0.03)"/>
    <path class="cls-7" d="M958,445.61q-2.7,5.67-5.33,11.12H14.51q-1.93-5.49-3.6-11.12Z" transform="translate(-0.01 -0.03)"/>
  </g>
  <rect class="cls-8" x="211.59" y="265.8" width="19" height="57.66"/>
  <rect class="cls-8" x="722.92" y="262.8" width="19" height="61"/>
  <polygon class="cls-9" points="863.09 533.62 863.09 546.62 711.17 548.01 709.55 548.04 651.81 548.58 650.43 548.6 632.88 548.75 632.36 548.75 525.38 549.74 349.77 551.37 349.62 551.37 304.97 551.78 304.49 551.79 106.09 553.62 106.09 538.62 152.74 510.62 246.34 509.83 248.34 509.82 249 509.81 251 509.79 295.94 509.42 297.95 509.4 298.59 509.39 300.59 509.38 315 509.26 315.38 509.25 350.93 508.95 351.22 508.95 628.62 506.62 635.41 506.56 636.09 506.56 641.27 506.51 678.92 506.2 680.92 506.18 682.77 506.15 683.73 506.15 695.44 506.06 697.76 506.04 700.87 506.01 710.62 505.93 726.09 505.8 728.09 505.77 731.57 505.75 732.22 505.75 806.93 505.12 863.09 533.62"/>
  <polygon class="cls-10" points="863.09 533.62 863.09 546.62 711.17 548.01 709.55 548.04 651.81 548.58 650.43 548.6 632.88 548.75 632.36 548.75 525.38 549.74 349.77 551.37 349.62 551.37 304.97 551.78 304.49 551.79 106.09 553.62 106.09 538.62 152.74 510.62 246.34 509.83 248.34 509.82 249 509.81 251 509.79 295.94 509.42 297.95 509.4 298.59 509.39 300.59 509.38 315 509.26 315.38 509.25 350.93 508.95 351.22 508.95 628.62 506.62 635.41 506.56 636.09 506.56 641.27 506.51 678.92 506.2 680.92 506.18 682.77 506.15 683.73 506.15 695.44 506.06 697.76 506.04 700.87 506.01 710.62 505.93 726.09 505.8 728.09 505.77 731.57 505.75 732.22 505.75 806.93 505.12 863.09 533.62"/>
  <path class="cls-8" d="M296.1,483.66v24.49a6.13,6.13,0,0,1-3.5,5.54,6,6,0,0,1-2.5.6l-34.9.74a6,6,0,0,1-2.7-.57,6.12,6.12,0,0,1-3.57-5.57V483.66Z" transform="translate(-0.01 -0.03)"/>
  <path class="cls-11" d="M296.1,483.66v24.49a6.13,6.13,0,0,1-3.5,5.54,6,6,0,0,1-2.5.6l-34.9.74a6,6,0,0,1-2.7-.57,6.12,6.12,0,0,1-3.57-5.57V483.66Z" transform="translate(-0.01 -0.03)"/>
  <path class="cls-8" d="M298.1,483.66v24.49a6.13,6.13,0,0,1-3.5,5.54,6,6,0,0,1-2.5.6l-34.9.74a6,6,0,0,1-2.7-.57,6.12,6.12,0,0,1-3.57-5.57V483.66Z" transform="translate(-0.01 -0.03)"/>
  <rect class="cls-8" x="680.92" y="483.63" width="47.17" height="31.5"/>
  <rect class="cls-11" x="680.92" y="483.63" width="47.17" height="31.5"/>
  <rect class="cls-8" x="678.92" y="483.63" width="47.17" height="31.5"/>
  <polygon class="cls-11" points="230.59 265.79 230.59 271.51 211.59 271.02 211.59 265.79 230.59 265.79"/>
  <path class="cls-9" d="M355.66,104.4l-22.83,164a4.3,4.3,0,0,1-4.37,3.71l-182.8-4.74-3.47-.09a4.3,4.3,0,0,1-4.16-4.87L163.66,90.73a4.3,4.3,0,0,1,4.54-3.63L351.66,99.52a4.29,4.29,0,0,1,4,4.53Q355.68,104.23,355.66,104.4Z" transform="translate(-0.01 -0.03)"/>
  <polygon class="cls-12" points="175.92 99.13 156.59 250.46 324.59 255.78 345.25 109.78 175.92 99.13"/>
  <rect class="cls-9" x="384.59" y="96.79" width="204.67" height="173.33" rx="5.33" ry="5.33"/>
  <rect class="cls-12" x="394.25" y="108.46" width="186" height="144.33"/>
  <polygon class="cls-11" points="741.92 262.79 741.92 266.57 722.92 266.96 722.92 262.79 741.92 262.79"/>
  <path class="cls-9" d="M827.66,259.62a3.08,3.08,0,0,1-2.87,3.27h-.13l-187.2,3.87a3.08,3.08,0,0,1-3.13-2.79L618.24,96.7A3.08,3.08,0,0,1,621,93.34h.15l185.78-9.24,2-.1a3.07,3.07,0,0,1,3.22,2.8Z" transform="translate(-0.01 -0.03)"/>
  <polygon class="cls-12" points="628.92 103.13 798.59 94.78 812.92 246.78 644.59 250.78 628.92 103.13"/>
  <path class="cls-11" d="M827.66,259.62a3.08,3.08,0,0,1-2.87,3.27h-.13L806.94,84.09l2-.1a3.07,3.07,0,0,1,3.22,2.8Z" transform="translate(-0.01 -0.03)"/>
  <path class="cls-11" d="M168.23,87.09,145.66,267.37l-3.47-.09a4.3,4.3,0,0,1-4.16-4.87L163.66,90.73A4.3,4.3,0,0,1,168.23,87.09Z" transform="translate(-0.01 -0.03)"/>
  <rect class="cls-11" x="211.59" y="306.38" width="19" height="17.08"/>
  <polygon class="cls-11" points="298.09 483.62 298.09 488.58 250.92 489.85 250.92 483.62 298.09 483.62"/>
  <path class="cls-9" d="M381.35,312.36v168.2a4,4,0,0,1-3.85,4l-191.65,5.1h0a4,4,0,0,1-4-4V312.36a4,4,0,0,1,4-4H377.4A4,4,0,0,1,381.35,312.36Z" transform="translate(-0.01 -0.03)"/>
  <path class="cls-11" d="M185.85,308.41v181.2h0a4,4,0,0,1-4-4V312.36a4,4,0,0,1,4-4Z" transform="translate(-0.01 -0.03)"/>
  <polygon class="cls-13" points="194.59 319.12 372.09 319.12 372.09 467.37 194.59 471.37 194.59 319.12"/>
  <rect class="cls-11" x="722.92" y="306.38" width="19" height="17.42"/>
  <polygon class="cls-11" points="726.09 483.62 726.09 490.02 678.92 488.76 678.92 483.62 726.09 483.62"/>
  <path class="cls-9" d="M788.35,312.36v173.3a4,4,0,0,1-4,4h0l-191.69-5.1a4,4,0,0,1-3.85-4V312.36a4,4,0,0,1,4-4h191.6A4,4,0,0,1,788.35,312.36Z" transform="translate(-0.01 -0.03)"/>
  <path class="cls-11" d="M788.35,312.36v173.3a4,4,0,0,1-4,4h0V308.41h0A4,4,0,0,1,788.35,312.36Z" transform="translate(-0.01 -0.03)"/>
  <polygon class="cls-12" points="775.59 319.12 598.09 319.12 598.09 467.37 775.59 471.37 775.59 319.12"/>
  <path class="cls-9" d="M583.85,312.36v168.2a4,4,0,0,1-3.85,4l-191.65,5.1h0a4,4,0,0,1-4-4V312.36a4,4,0,0,1,4-4H579.9A4,4,0,0,1,583.85,312.36Z" transform="translate(-0.01 -0.03)"/>
  <polygon class="cls-12" points="397.09 319.12 574.59 319.12 574.59 467.37 397.09 471.37 397.09 319.12"/>
  <polygon class="cls-11" points="863.09 533.62 863.09 546.62 711.17 548.01 709.55 548.04 651.81 548.58 650.43 548.6 632.88 548.75 632.36 548.75 525.38 549.74 349.77 551.37 349.62 551.37 304.97 551.78 304.49 551.79 106.09 553.62 106.09 538.62 308.6 537.28 309.08 537.28 350.07 537 350.26 537 633.34 535.13 633.63 535.13 633.8 535.13 634.27 535.13 639.06 535.1 640.52 535.1 715.01 534.6 719.41 534.58 720.39 534.57 863.09 533.62"/>
  <circle class="cls-14" cx="487.25" cy="272.13" r="51.33"/>
  <path class="cls-15" d="M304.4,552.18a1.24,1.24,0,0,1,.1-.35c1-3.59,2.78-9.66,4.11-14.51.17-.6.33-1.19.48-1.75,1.47-5.47,4.33-18.28,5.92-26.27.56-2.81,1-5,1.09-6.1.2-1.69,3.21-8.92,6.62-17.23,2.39-5.84,5-12.22,6.91-17.6a61.38,61.38,0,0,0,2.93-9.85,5.1,5.1,0,0,0,0-2.13,14.69,14.69,0,0,1-.48-3.5h0c-.23-6.2,1.62-16,4.48-20.11,3.5-5,6-23.66,6-23.66s5.18.75,6-3.53a6.15,6.15,0,0,0,.1-1.4,7.41,7.41,0,0,0-.09-1.11c-.89-6.24,14.72-12.88,23.5-14.31a19.67,19.67,0,0,1,3-.28,27.24,27.24,0,0,0,6.25-1.44q1.4-.43,3-1c3.68-1.24,8.08-2.88,12.75-4.68,17.56-6.81,38.82-16,38.82-16,.15-.71.32-1.39.51-2.06a27.71,27.71,0,0,1,16.35-18.93h0v-2c0-3.45-.15-7-.3-10.54,0-.69-.06-1.38-.1-2.07v-1.13c0-.7-.07-1.4-.11-2.09l-.18-.14a16.41,16.41,0,0,1-3.9-4.2,15.27,15.27,0,0,1-1.42-3c-1.25-3.39-1.54-7.17-2.38-10.75l-.18-.74a84,84,0,0,0-4-10.58c-2.21-5.42-3.91-11-5.6-16.65q-1.54-5.13-3.11-10.28L429.89,265c-.3-1-.6-2-.83-3h0a13.27,13.27,0,0,1-.26-1.4h0A10,10,0,0,1,429,256a32.09,32.09,0,0,1,1.32-3,7.87,7.87,0,0,0,.5-1.38h0a3,3,0,0,0,.08-.32,5.65,5.65,0,0,0,.11-1.08,18.46,18.46,0,0,0-.52-3.89.07.07,0,0,1,0,0,2.56,2.56,0,0,0,0-.27,25.48,25.48,0,0,1-.36-3,28.45,28.45,0,0,1,3.47-15.57l.19-.36a25.21,25.21,0,0,1,1.84-2.78h0a14,14,0,0,1,1-1.22c-1.4,1.34-3.7.75-5-.69a3.61,3.61,0,0,1-.55-.75,3.81,3.81,0,0,1-.23-.45c0-.12-.09-.25-.13-.38-.7-2.45.52-5.06,2.12-7a18.49,18.49,0,0,1,5.74-4.7h0a3.84,3.84,0,0,1,.4-.21,17.12,17.12,0,0,1,2.64-1.06h0a15.06,15.06,0,0,1,1.63-.44l-3.71-.34-1.5-.14a14.49,14.49,0,0,1,13-10.91h1.08a11.73,11.73,0,0,1,1.57.13,4.44,4.44,0,0,1-2.65-4.33,14.41,14.41,0,0,0,9.19,3.06h.38a30,30,0,0,1-.34-3.27h0a33.2,33.2,0,0,1,0-4.46,8.44,8.44,0,0,0,6.78,2.26l-2.08-2.9a9.49,9.49,0,0,0,6.56,2l.48,0a7,7,0,0,0,1.19-.23h.09c-.19-.24-.36-.49-.53-.75l-.06-.12a9.67,9.67,0,0,1-1-2.09,6.59,6.59,0,0,1-.24-.87h0a8.75,8.75,0,0,1,.45-5.45c3.23,2.7,6.77,6.39,11,3.6s4.37-7.91,11-7.39a10.2,10.2,0,0,1,8.41,6.12,6.75,6.75,0,0,1,7.67-1.75,6.85,6.85,0,0,1,3.88,6.89c2.75-.69,5.71-1.37,8.35-.33s4.34,4.41,2.84,6.66a1.43,1.43,0,0,1-.14.2c-1.23,1.59-4,2.46-3.66,4.46l.42.3,1.3.94h0q7.65,5.52,14.9,11.6c2.48,2.08,5.12,4.58,5.29,7.83a8.64,8.64,0,0,1-.24,2.37h0c-.16.78-.38,1.56-.55,2.34a19.51,19.51,0,0,0-.34,6h0c.07.59.16,1.17.27,1.76,1.53,7.73,7.71,14.11,8.32,22v.56a17.77,17.77,0,0,1-.07,2.53c-.46,4.8-2.68,9.41-4.48,14-.11.28-.22.56-.32.84-3.47,9-5.47,18.59-7,28.16a100.27,100.27,0,0,1-2,10.09,26.73,26.73,0,0,1-5.09,10.43,16.22,16.22,0,0,1-3.36,3,18.67,18.67,0,0,1-2.65,1.41v.06c.11.61.2,1.22.31,1.83.06.32.11.64.17,1h0a.14.14,0,0,0,0,.06c.84,4.73,1.8,9.36,2.81,13.76l.51,2.19c12.6,4.55,14.09,13.87,14.18,17.44a9.64,9.64,0,0,1,0,1.43s19,.5,26.5,6a20.34,20.34,0,0,0,4.51,2.3,83,83,0,0,0,9.25,2.89c1.61.42,3.29.83,5,1.23,3,.69,6.18,1.36,9.25,2,8.19,1.65,15.9,3,19.81,4,9.33,2.36,30.67,22.82,30.67,22.82s2.5,20.64,5,23.65,7,13.59,7,13.59l16.54,29.41,7,12.37h4.5c.62,0,1.84.88,3.21,2.1,1.19,1.06,2.51,2.38,3.67,3.58l1.92,2,1.2,1.33s7.27.18,9.24,5.93c5.92-.17,13.19.22,18.28,2.5a14.14,14.14,0,0,1,2,1.08,8.68,8.68,0,0,1,4.13,5.66,8.34,8.34,0,0,1,.18,1.44V509c-.36,7.57-5.29,13.87-9.82,18.11l.32.57s-.15.36-.44,1c-.08.19-.18.4-.29.64h0c-.59,1.26-1.53,3.15-2.76,5.36a63.31,63.31,0,0,1-9.57,13.17l-.29.3-57.74.53-.17-.2-11.2-13.36L635,528.45l-.17-.21-.16,1.59-.54,5.3-1.3,12.81-.07.64v.17l-.15,1.48.11-1.48h-.29l-107,1-175.62,1.94v.84h-.14v-.84l-44.75.48Z" transform="translate(-0.01 -0.03)"/>
  <path class="cls-14" d="M538.6,377.16s-99.5,12-90,0c3.44-4.34,4.39-17.2,4.2-31.85-.06-4.45-.22-9.06-.45-13.65-1.1-22-3.75-43.5-3.75-43.5s87-41,77-8.5c-4,13.13-2.69,31.57.35,48.88.89,5,1.92,10,3,14.7A344.66,344.66,0,0,0,538.6,377.16Z" transform="translate(-0.01 -0.03)"/>
  <path class="cls-11" d="M538.6,377.16s-99.5,12-90,0c3.44-4.34,4.39-17.2,4.2-31.85,15.17-6.48,34.47-1.65,34.47-1.65,20.32-4,33.35-3.26,41.68-.42A344.66,344.66,0,0,0,538.6,377.16Z" transform="translate(-0.01 -0.03)"/>
  <path class="cls-16" d="M349.74,552.53v-.84l175.62-1.91,107-1h.3l-.11,1.48.15-1.48h.19v-.17l1.37-13.45.52-5.09.16-1.59.14-1.33,6.18-20.61L647.44,486l5.2-17.33,7.94-26.48s-4.5-10.5-7-13.5-5-23.5-5-23.5-21.34-20.33-30.67-22.67c-3.91-1-11.63-2.33-19.83-4-3.07-.62-6.22-1.28-9.25-2-1.71-.39-3.39-.8-5-1.21a87.91,87.91,0,0,1-9.25-2.86,20.7,20.7,0,0,1-4.5-2.29c-7.35-5.39-25.77-6-26.48-6h0a.42.42,0,0,1,0-.07V364a10.26,10.26,0,0,0,0-1.26,8,8,0,0,0-.09-1.4,1.26,1.26,0,0,0-.07-.5c0-.36-.11-.74-.2-1.14a5,5,0,0,0-.12-.53,17.21,17.21,0,0,0-1.25-3.49c-.07-.16-.16-.33-.24-.49a18.25,18.25,0,0,0-1.7-2.63c-.13-.17-.27-.35-.42-.52a19.58,19.58,0,0,0-2.72-2.64c-.27-.21-.55-.43-.84-.63a4.67,4.67,0,0,0-.51-.36l-.89-.58-.83-.48c-.73-.4-1.5-.79-2.34-1.16-.26-.12-.54-.23-.82-.34l-1.09-.42h-.06l-.75-.3c-.57-.19-1.15-.36-1.76-.53l-.93-.24-1-.23-1-.21c-1-.2-2.07-.38-3.19-.52l-1.14-.14-1.17-.12-1.21-.1-1.72-.1-2-.07a124.68,124.68,0,0,0-26.24,2.79A72.27,72.27,0,0,0,469,343.94h-.87l-1,.06h-.64l-1.29.12a9.59,9.59,0,0,0-1.3.15c-.43.06-.88.11-1.31.18l-.66.11c-.65.11-1.31.23-2,.37q-.33.06-.66.15c-.87.19-1.74.42-2.6.68-.43.12-.86.26-1.29.41-.22.06-.43.14-.64.22l-.64.23-.63.25-.75.3c-.38.16-.75.33-1.12.51-.21.09-.42.19-.62.3s-.41.2-.6.31a27.75,27.75,0,0,0-6.21,4.38l-.51.49-.5.51c-.17.17-.33.35-.49.53a23.81,23.81,0,0,0-1.82,2.25c-.16.21-.31.42-.46.64a26.69,26.69,0,0,0-1.72,2.92c-.13.24-.25.49-.37.73a32.7,32.7,0,0,0-2,5.25q-.28,1-.51,2c-.23,1-21.17,9.34-38.73,16.1-4.67,1.8-9.07,3.43-12.75,4.66l-3,1a26.7,26.7,0,0,1-6.25,1.44,19.67,19.67,0,0,0-3,.28c-8.07,1.31-21.9,7-23.41,12.71a3.69,3.69,0,0,0-.1,1.4v.11c1,7-6,6-6,6s-2.5,18.5-6,23.5c-2.53,3.6-4.26,11.63-4.48,17.69h0a19.61,19.61,0,0,0,.44,5.63v.14c.4,1.34-.56,5-2.19,9.69-1.77,5.15-4.35,11.55-6.83,17.59-3.74,9.12-7.26,17.4-7.48,19.22-.09.81-.35,2.26-.71,4.13-1.46,7.62-4.7,22.13-6.3,28-1.19,4.38-2.92,10.38-4.11,14.5a1.4,1.4,0,0,1-.1.35l44.83-.44v.84h.08Z" transform="translate(-0.01 -0.03)"/>
  <path class="cls-11" d="M366.1,434.66s57,29.5,77.5,26Z" transform="translate(-0.01 -0.03)"/>
  <path class="cls-11" d="M482.1,422.66s55.5,18,74,20.5S482.1,422.66,482.1,422.66Z" transform="translate(-0.01 -0.03)"/>
  <path class="cls-11" d="M543.66,364.74c-29,5.34-83.6,4.19-107.2,3.38,8.65-31,50.83-20.46,50.83-20.46C539.5,337.24,543.5,358.86,543.66,364.74Z" transform="translate(-0.01 -0.03)"/>
  <path class="cls-17" d="M543.66,362.74c-29,5.34-83.6,4.19-107.2,3.38,8.65-31,50.83-20.46,50.83-20.46C539.5,335.24,543.5,356.86,543.66,362.74Z" transform="translate(-0.01 -0.03)"/>
  <path class="cls-14" d="M697.6,499.41s34.16-5.25,34.83,9.75S715,534.64,715,534.64Z" transform="translate(-0.01 -0.03)"/>
  <path class="cls-11" d="M525.95,328.54a47,47,0,0,1-4.5,1.74c-10.78,3.72-21.65,7.47-33,8.83s-23.26.16-33.16-5.5a28.77,28.77,0,0,1-3-2c-1.1-22-3.75-43.5-3.75-43.5s87-41,77-8.5C521.56,292.79,522.91,311.23,525.95,328.54Z" transform="translate(-0.01 -0.03)"/>
  <path class="cls-8" d="M473.18,191.93a9.47,9.47,0,0,1-8.32-1.75l2.08,2.89a8.47,8.47,0,0,1-6.78-2.25,34.08,34.08,0,0,0,.32,7.75,14.52,14.52,0,0,1-9.56-3,4.42,4.42,0,0,0,2.64,4.31A14.34,14.34,0,0,0,438,210.59l5.22.48a18.47,18.47,0,0,0-10.44,6.37c-1.6,2-2.82,4.56-2.12,7s4.08,4,5.92,2.26a27.94,27.94,0,0,0-6.1,22.79,14.47,14.47,0,0,1,.46,5.26c-.33,1.65-1.37,3.08-1.89,4.69-1,2.92,0,6.09.84,9l4.69,15.42c1.7,5.57,3.39,11.15,5.61,16.54a82.08,82.08,0,0,1,4,10.51c1.26,4.84,1.31,10.14,4,14.37a19.93,19.93,0,0,0,7.18,6.33c9.89,5.66,21.84,6.86,33.16,5.5s22.18-5.11,33-8.83a31,31,0,0,0,6.84-3c7.45-4.88,9.11-14.86,10.5-23.65,1.55-9.8,3.62-19.58,7.29-28.8,2.18-5.49,5-11.06,4.52-16.94-.61-7.81-6.79-14.14-8.32-21.82a19,19,0,0,1,.07-7.77,17.66,17.66,0,0,0,.79-4.7c-.17-3.22-2.81-5.7-5.29-7.77q-8.07-6.74-16.66-12.74c-.29-2,2.43-2.86,3.66-4.44,1.74-2.23-.06-5.77-2.7-6.81s-5.6-.36-8.35.33a6.59,6.59,0,0,0-11.55-5.11,10.2,10.2,0,0,0-8.42-6.08c-6.63-.52-6.76,4.55-11,7.34s-7.74-.89-11-3.57A9.28,9.28,0,0,0,473.18,191.93Z" transform="translate(-0.01 -0.03)"/>
  <path class="cls-18" d="M722.93,529.41s-.89,2.12-2.53,5.19a69,69,0,0,1-9,13.17l-.27.29h-1.62l-57.74.53h-1.38l-.17-.2L639,535.1l-4.22-5-.17-.21-.36-.42-.2-.24-.26-.31-8.21-9.74,3-12.5,5.11-21.06.13-.51,1-4,.71-3,2.38-9.78,8.16-33.65,14.5,7.5,15.29,27,8.21,14.5h4.5c.85,0,2.8,1.64,4.76,3.53.7.67,1.4,1.38,2,2,1.78,1.84,3.19,3.42,3.19,3.42s7.29.16,9.25,5.9a7,7,0,0,1,.25.85,40.3,40.3,0,0,0,2.53,6.56c1.29,2.81,2.91,6,4.55,9.19,3,5.85,6.15,11.42,7.29,13.44l.14.25Z" transform="translate(-0.01 -0.03)"/>
  <path class="cls-11" d="M637,484.26l-.1,1.43v.1l-.17,2.3-1.33,18.51-1.61,22.3-.46,6.28-1,13.44v.17l-107,1-175.59,1.9v.84h-.14v-1.12l.45-14.36.86-28.06.74-23.79.07-2.37a10.53,10.53,0,0,1,10.85-10.2l.57,0c4.72.4,10.85.89,18.18,1.41l3,.22c42.33,2.94,120.56,6.74,199.5,2,1.66-.09,3.33-.19,5-.31,12.24-.77,24.47-1.76,36.58-3A10.53,10.53,0,0,1,637,484.21Z" transform="translate(-0.01 -0.03)"/>
  <path class="cls-8" d="M349.74,552.53v-.84l175.62-1.91,107-1h.3v-.17l1-13.44.43-6,1.64-22.61,1.29-17.9v-.44a10.62,10.62,0,0,0-.11-2.47.3.3,0,0,0,0-.1,10.39,10.39,0,0,0-2-4.64,10.54,10.54,0,0,0-9.42-4c-12.11,1.24-24.34,2.23-36.58,3-1.67.12-3.34.22-5,.31-78.94,4.69-157.17.89-199.5-2l-3-.22c-7.33-.52-13.46-1-18.18-1.41A10.54,10.54,0,0,0,352,485.22a11,11,0,0,0-.18,1.64L351.13,509l-.93,28.07-.44,14.36v1.12Z" transform="translate(-0.01 -0.03)"/>
  <path class="cls-11" d="M637.33,491.27,636.1,506.6l-1.83,22.85-.46,5.72-1,12.81-.06.64v.17h0l-.15,1.48.11-1.48h-.29l-107,1-175.65,1.9v-.28l.49-14.36,1-28.06.64-18.65a6.36,6.36,0,0,1,3.06-5.25,6.25,6.25,0,0,1,3.78-.9c2.1.17,4.68.37,7.69.59,4.89.36,10.92.78,17.94,1.22,13,.82,29.31,1.7,48,2.42,52,2,122.2,2.67,188.88-3.17,3-.26,6.1-.55,9.13-.84a6.26,6.26,0,0,1,3.48.66,5.16,5.16,0,0,1,.86.54,6.14,6.14,0,0,1,2,2.46,3.55,3.55,0,0,1,.25.61A6.28,6.28,0,0,1,637.33,491.27Z" transform="translate(-0.01 -0.03)"/>
  <path class="cls-11" d="M298.1,505v3.19a6.13,6.13,0,0,1-3.5,5.54l-40.1.77a6.12,6.12,0,0,1-3.57-5.57v-3Z" transform="translate(-0.01 -0.03)"/>
  <polygon class="cls-8" points="298.59 515.53 246.34 516.53 246.34 507.87 298.59 506.87 298.59 515.53"/>
  <polygon class="cls-11" points="298.59 515.53 246.34 516.53 246.34 507.87 298.59 506.87 298.59 515.53"/>
  <polygon class="cls-8" points="300.59 515.53 248.34 516.53 248.34 507.87 300.59 506.87 300.59 515.53"/>
  <g class="cls-19">
    <path d="M473.59,188.65a9.75,9.75,0,0,1-1.89-4.34,9.49,9.49,0,0,0,.42,4.6A9,9,0,0,0,473.59,188.65Z" transform="translate(-0.01 -0.03)"/>
    <path d="M460.89,195.29a35.12,35.12,0,0,1-.37-3.7v3.71Z" transform="translate(-0.01 -0.03)"/>
    <path d="M542.39,228.66a18.34,18.34,0,0,1,.36-2.65,18,18,0,0,0,.8-4.69,6.16,6.16,0,0,0-.16-1.06c-.17.92-.44,1.84-.64,2.75A19.14,19.14,0,0,0,542.39,228.66Z" transform="translate(-0.01 -0.03)"/>
    <path d="M521.59,197.76l1.09.79a19.71,19.71,0,0,0,2.57-2.22,3.67,3.67,0,0,0,.38-3.64,3,3,0,0,1-.38.64C524,194.91,521.3,195.78,521.59,197.76Z" transform="translate(-0.01 -0.03)"/>
    <path d="M439.42,207.38a12.32,12.32,0,0,0-.87,2.28,18.16,18.16,0,0,1,5-1.89Z" transform="translate(-0.01 -0.03)"/>
    <path d="M453.21,196.5a14.83,14.83,0,0,1-1.88-1.23,4.25,4.25,0,0,0,.09,1.18A11.86,11.86,0,0,1,453.21,196.5Z" transform="translate(-0.01 -0.03)"/>
    <path d="M551,255.42c-.41,4.85-2.67,9.52-4.5,14.12-3.67,9.22-5.74,19-7.29,28.81-1.39,8.79-3,18.77-10.5,23.64a30,30,0,0,1-6.83,3c-10.78,3.73-21.65,7.47-33,8.83s-23.26.17-33.16-5.49a20,20,0,0,1-7.18-6.33c-2.67-4.23-2.72-9.53-4-14.37a82.21,82.21,0,0,0-4-10.52c-2.21-5.38-3.91-11-5.6-16.53q-2.35-7.71-4.69-15.43a28.81,28.81,0,0,1-1.14-4.75c-.39,2.56.37,5.24,1.14,7.75q2.34,7.73,4.69,15.43c1.69,5.57,3.39,11.15,5.6,16.53a82.21,82.21,0,0,1,4,10.52c1.26,4.84,1.31,10.14,4,14.37a20,20,0,0,0,7.18,6.33c9.9,5.66,21.84,6.85,33.16,5.49s22.18-5.1,33-8.83a30,30,0,0,0,6.83-3c7.45-4.87,9.11-14.85,10.5-23.64,1.55-9.81,3.62-19.59,7.29-28.81,2.18-5.48,5-11,4.52-16.94C551,255.54,551,255.48,551,255.42Z" transform="translate(-0.01 -0.03)"/>
    <path d="M431.29,251.55v-.11a14,14,0,0,0-.46-5.25,26.59,26.59,0,0,1-.39-3.32,27.35,27.35,0,0,0,.39,6.32C431,250,431.17,250.76,431.29,251.55Z" transform="translate(-0.01 -0.03)"/>
    <path d="M434.34,227.09a27.74,27.74,0,0,1,2.61-3.67c-1.83,1.75-5.21.19-5.92-2.24a5.83,5.83,0,0,0,0,3A4.39,4.39,0,0,0,434.34,227.09Z" transform="translate(-0.01 -0.03)"/>
  </g>
  <path class="cls-11" d="M684.1,483.66s3.17,11.5,0,21.5S684.1,483.66,684.1,483.66Z" transform="translate(-0.01 -0.03)"/>
  <path class="cls-11" d="M697.6,495.39s1.33,14.6-1.67,17.19S697.6,495.39,697.6,495.39Z" transform="translate(-0.01 -0.03)"/>
  <g>
    <line class="cls-20" x1="205.98" y1="342.83" x2="307.59" y2="341.83"/>
    <line class="cls-21" x1="205.98" y1="355.6" x2="270.99" y2="354.96"/>
    <line class="cls-22" x1="205.98" y1="369.53" x2="256.78" y2="369.03"/>
    <line class="cls-23" x1="205.98" y1="410.69" x2="307.59" y2="409.69"/>
    <line class="cls-24" x1="205.98" y1="423.46" x2="270.99" y2="422.82"/>
    <line class="cls-25" x1="205.98" y1="437.39" x2="256.78" y2="436.89"/>
  </g>
  <rect class="cls-26" x="804.82" y="401.31" width="116.57" height="42.7" rx="21.35" ry="21.35" transform="translate(383.46 -410.17) rotate(33.97)"/>
</svg>
