<svg id="Layer_2" data-name="Layer 2" xmlns="http://www.w3.org/2000/svg" xmlns:xlink="http://www.w3.org/1999/xlink" viewBox="0 0 458.03 406.18">
  <defs>
    <style>
      .cls-1 {
        fill: url(#linear-gradient);
      }

      .cls-2 {
        fill: url(#linear-gradient-2);
      }

      .cls-3 {
        fill: #eae6ff;
      }

      .cls-4 {
        opacity: 0.5;
      }

      .cls-5 {
        fill: #8a8ac1;
      }

      .cls-6 {
        clip-path: url(#clip-path);
      }

      .cls-7 {
        fill: #fff;
      }

      .cls-8 {
        fill: #edc078;
      }

      .cls-9 {
        fill: #a7b1d9;
      }

      .cls-10 {
        fill: #fbf6f2;
      }

      .cls-11 {
        fill: #f5f5f5;
      }

      .cls-12 {
        fill: #f9f9f9;
      }

      .cls-13 {
        fill: #cecece;
      }

      .cls-14 {
        fill: #4c419e;
        opacity: 0.2;
      }

      .cls-15 {
        fill: url(#linear-gradient-4);
      }

      .cls-16 {
        fill: #4a41a3;
      }

      .cls-17 {
        fill: #5a52bd;
      }

      .cls-18 {
        clip-path: url(#clip-path-2);
      }

      .cls-19 {
        fill: #e8e8ea;
      }

      .cls-20 {
        fill: #c3c1dc;
      }

      .cls-21 {
        fill: #d8d8dd;
      }

      .cls-22 {
        fill: #a8deca;
      }

      .cls-23 {
        fill: #b6e3c3;
      }

      .cls-24 {
        fill: none;
      }

      .cls-24, .cls-57 {
        stroke: #fff;
        stroke-miterlimit: 10;
      }

      .cls-25 {
        fill: url(#linear-gradient-6);
      }

      .cls-26 {
        fill: #8a8ab6;
      }

      .cls-27 {
        fill: #df99ac;
      }

      .cls-28 {
        fill: #e9e9ea;
      }

      .cls-29 {
        fill: url(#linear-gradient-7);
      }

      .cls-30 {
        fill: #6968a2;
      }

      .cls-31 {
        fill: #9496bb;
      }

      .cls-32 {
        fill: #d00d36;
      }

      .cls-33 {
        fill: url(#linear-gradient-8);
      }

      .cls-34 {
        fill: url(#linear-gradient-9);
      }

      .cls-35 {
        fill: #f0aebb;
      }

      .cls-36 {
        fill: url(#linear-gradient-10);
      }

      .cls-37 {
        fill: url(#linear-gradient-11);
      }

      .cls-38 {
        fill: url(#linear-gradient-12);
      }

      .cls-39 {
        fill: url(#linear-gradient-13);
      }

      .cls-40 {
        fill: url(#linear-gradient-14);
      }

      .cls-41 {
        fill: url(#linear-gradient-15);
      }

      .cls-42 {
        fill: url(#linear-gradient-16);
      }

      .cls-43 {
        fill: url(#linear-gradient-17);
      }

      .cls-44 {
        fill: url(#linear-gradient-18);
      }

      .cls-45 {
        fill: url(#linear-gradient-19);
      }

      .cls-46 {
        fill: url(#linear-gradient-20);
      }

      .cls-47 {
        fill: url(#linear-gradient-21);
      }

      .cls-48 {
        fill: url(#linear-gradient-22);
      }

      .cls-49 {
        fill: url(#linear-gradient-23);
      }

      .cls-50 {
        fill: url(#linear-gradient-24);
      }

      .cls-51 {
        fill: url(#linear-gradient-25);
      }

      .cls-52 {
        fill: #eebcac;
      }

      .cls-53 {
        fill: #261b51;
      }

      .cls-54 {
        fill: url(#linear-gradient-26);
      }

      .cls-55 {
        fill: #251a52;
      }

      .cls-56 {
        fill: #e7e8ef;
      }

      .cls-57 {
        fill: #161561;
        stroke-width: 2px;
      }

      .cls-58 {
        fill: #21256c;
      }

      .cls-59 {
        fill: url(#linear-gradient-27);
      }

      .cls-60 {
        fill: url(#linear-gradient-28);
      }

      .cls-61 {
        fill: url(#linear-gradient-29);
      }

      .cls-62 {
        fill: #21256d;
      }

      .cls-63 {
        fill: #231a6b;
      }
    </style>
    <linearGradient id="linear-gradient" x1="323.18" y1="234.48" x2="439.56" y2="234.48" gradientUnits="userSpaceOnUse">
      <stop offset="0" stop-color="#593fff"/>
      <stop offset="1" stop-color="#974175"/>
    </linearGradient>
    <linearGradient id="linear-gradient-2" x1="271.69" y1="259.01" x2="403.89" y2="259.01" xlink:href="#linear-gradient"/>
    <clipPath id="clip-path" transform="translate(-20.99 -46.91)">
      <rect id="_Rectangle_" data-name="&lt;Rectangle&gt;" class="cls-1" x="323.18" y="196.87" width="116.39" height="75.2" rx="4.25" ry="4.25"/>
    </clipPath>
    <linearGradient id="linear-gradient-4" x1="254.57" y1="257.98" x2="448.47" y2="257.98" xlink:href="#linear-gradient"/>
    <clipPath id="clip-path-2" transform="translate(-20.99 -46.91)">
      <rect id="_Rectangle_2" data-name="&lt;Rectangle&gt;" class="cls-2" x="271.69" y="216.3" width="132.2" height="85.42" rx="4.25" ry="4.25"/>
    </clipPath>
    <linearGradient id="linear-gradient-6" x1="138.91" y1="187.88" x2="175.2" y2="187.88" xlink:href="#linear-gradient"/>
    <linearGradient id="linear-gradient-7" x1="197.75" y1="145.95" x2="214.06" y2="145.95" xlink:href="#linear-gradient"/>
    <linearGradient id="linear-gradient-8" x1="168.26" y1="224.51" x2="198.84" y2="224.51" gradientTransform="translate(-94.12 140.88) rotate(-33.97)" xlink:href="#linear-gradient"/>
    <linearGradient id="linear-gradient-9" x1="-85.81" y1="104.71" x2="-55.23" y2="104.71" gradientTransform="translate(119.87 -54.54) rotate(-33.97)" xlink:href="#linear-gradient"/>
    <linearGradient id="linear-gradient-10" x1="184.75" y1="38.38" x2="193.94" y2="38.38" xlink:href="#linear-gradient"/>
    <linearGradient id="linear-gradient-11" x1="184.75" y1="41.64" x2="193.94" y2="41.64" xlink:href="#linear-gradient"/>
    <linearGradient id="linear-gradient-12" x1="184.75" y1="44.9" x2="193.94" y2="44.9" xlink:href="#linear-gradient"/>
    <linearGradient id="linear-gradient-13" x1="59.02" y1="41.34" x2="65.65" y2="41.34" xlink:href="#linear-gradient"/>
    <linearGradient id="linear-gradient-14" x1="129.02" y1="86.92" x2="131.92" y2="86.92" xlink:href="#linear-gradient"/>
    <linearGradient id="linear-gradient-15" x1="132.27" y1="87.65" x2="135.93" y2="87.65" xlink:href="#linear-gradient"/>
    <linearGradient id="linear-gradient-16" x1="136.77" y1="87.61" x2="138.65" y2="87.61" xlink:href="#linear-gradient"/>
    <linearGradient id="linear-gradient-17" x1="138.98" y1="87.65" x2="142.29" y2="87.65" xlink:href="#linear-gradient"/>
    <linearGradient id="linear-gradient-18" x1="143.1" y1="87.61" x2="148.48" y2="87.61" xlink:href="#linear-gradient"/>
    <linearGradient id="linear-gradient-19" x1="151.15" y1="86.92" x2="152" y2="86.92" xlink:href="#linear-gradient"/>
    <linearGradient id="linear-gradient-20" x1="153.02" y1="88.38" x2="156.6" y2="88.38" xlink:href="#linear-gradient"/>
    <linearGradient id="linear-gradient-21" x1="157.2" y1="87.65" x2="159.65" y2="87.65" xlink:href="#linear-gradient"/>
    <linearGradient id="linear-gradient-22" x1="160.51" y1="87.7" x2="163.7" y2="87.7" xlink:href="#linear-gradient"/>
    <linearGradient id="linear-gradient-23" x1="164.77" y1="87.61" x2="170.15" y2="87.61" xlink:href="#linear-gradient"/>
    <linearGradient id="linear-gradient-24" x1="192.09" y1="19.51" x2="200.79" y2="19.51" xlink:href="#linear-gradient"/>
    <linearGradient id="linear-gradient-25" x1="55.05" y1="19.54" x2="71.04" y2="19.54" xlink:href="#linear-gradient"/>
    <linearGradient id="linear-gradient-26" x1="80.71" y1="199.61" x2="151.35" y2="199.61" xlink:href="#linear-gradient"/>
    <linearGradient id="linear-gradient-27" x1="92.19" y1="351.3" x2="114.23" y2="351.3" gradientTransform="translate(305.08 45.83) rotate(49.83)" xlink:href="#linear-gradient"/>
    <linearGradient id="linear-gradient-28" x1="125.45" y1="303.21" x2="131.21" y2="303.21" xlink:href="#linear-gradient"/>
    <linearGradient id="linear-gradient-29" x1="139.87" y1="303.21" x2="145.63" y2="303.21" xlink:href="#linear-gradient"/>
  </defs>
  <title>something</title>
  <g>
    <path class="cls-3" d="M469,302.46s-44.2-31.51-48.15-60.51,19.47-127.37-57.36-131.46-113.86,68.7-145.47,75.72S97.79,201.38,62,244.53-2.2,361.35,48.32,415,182,451.86,203,445.54s64.2-30.52,127.35-28.42c0,0,70.78,4.21,88.93-4.47s56.18-30.91,59.2-67.09C481.66,307.67,469,302.46,469,302.46Z" transform="translate(-20.99 -46.91)"/>
    <g>
      <g id="InnerDashboard" class="cls-4">
        <g id="InnerScreen">
          <rect id="_Rectangle_3" data-name="&lt;Rectangle&gt;" class="cls-5" x="299.8" y="153.54" width="114.25" height="75.2" rx="4.25" ry="4.25"/>
          <g>
            <rect id="_Rectangle_4" data-name="&lt;Rectangle&gt;" class="cls-1" x="302.19" y="149.96" width="116.39" height="75.2" rx="4.25" ry="4.25"/>
            <g class="cls-6">
              <path class="cls-7" d="M318.85,203.74H439.06L439,266.15c0,3-2.18,5.85-5.22,5.93l-114.92,2.69Z" transform="translate(-20.99 -46.91)"/>
            </g>
          </g>
        </g>
        <g id="InnerData">
          <g>
            <polygon class="cls-5" points="310.92 195.52 323 185.23 333 187.39 343.79 175.48 341.6 173.49 346.88 173.49 346.88 179.16 344.69 176.57 333.64 189.21 323.3 187.02 311.86 196.97 310.92 195.52"/>
            <rect class="cls-8" x="310.27" y="202.24" width="4.48" height="12.24"/>
            <rect class="cls-8" x="333.25" y="194.28" width="4.48" height="20.19"/>
            <rect class="cls-9" x="321.76" y="191.59" width="4.48" height="23.38"/>
            <rect class="cls-9" x="344.24" y="181.95" width="4.48" height="33.03"/>
            <g>
              <rect class="cls-9" x="355.73" y="201.6" width="3.28" height="3.28"/>
              <rect class="cls-8" x="355.73" y="207.83" width="3.28" height="3.28"/>
              <rect class="cls-10" x="360.23" y="202.51" width="11.19" height="1.47"/>
              <rect class="cls-10" x="360.23" y="208.51" width="11.19" height="1.47"/>
            </g>
            <g>
              <rect class="cls-9" x="376.02" y="201.6" width="3.28" height="3.28"/>
              <rect class="cls-8" x="376.02" y="207.83" width="3.28" height="3.28"/>
              <rect class="cls-10" x="380.52" y="202.51" width="11.19" height="1.47"/>
              <rect class="cls-10" x="380.52" y="208.51" width="11.19" height="1.47"/>
            </g>
            <g>
              <rect class="cls-9" x="393.85" y="201.6" width="3.28" height="3.28"/>
              <rect class="cls-8" x="393.85" y="207.83" width="3.28" height="3.28"/>
              <rect class="cls-10" x="398.35" y="202.51" width="11.19" height="1.47"/>
              <rect class="cls-10" x="398.35" y="208.51" width="11.19" height="1.47"/>
            </g>
            <g>
              <rect class="cls-11" x="356.92" y="166.13" width="48.35" height="1.39"/>
              <rect class="cls-11" x="356.92" y="168.37" width="48.35" height="1.39"/>
              <rect class="cls-12" x="356.72" y="170.9" width="48.35" height="2.29"/>
            </g>
            <g>
              <rect class="cls-11" x="356.92" y="174.48" width="48.35" height="1.39"/>
              <rect class="cls-11" x="356.92" y="176.72" width="48.35" height="1.39"/>
              <rect class="cls-12" x="356.72" y="179.26" width="48.35" height="3.58"/>
            </g>
            <g>
              <rect class="cls-11" x="356.82" y="183.49" width="48.35" height="1.39"/>
              <rect class="cls-11" x="356.82" y="185.73" width="48.35" height="1.39"/>
              <rect class="cls-12" x="356.62" y="188.26" width="48.35" height="4.13"/>
            </g>
          </g>
          <g>
            <rect class="cls-13" x="305.87" y="170.95" width="1.49" height="47.35"/>
            <rect class="cls-13" x="305.87" y="217.29" width="47.35" height="1.49"/>
            <rect class="cls-13" x="311.02" y="160.22" width="93.95" height="1.49"/>
          </g>
        </g>
        <g id="PowerLaptop">
          <circle class="cls-7" cx="394.35" cy="153.54" r="1.21"/>
          <circle class="cls-7" cx="401.29" cy="153.54" r="1.21"/>
          <circle class="cls-7" cx="407.71" cy="153.54" r="1.21"/>
        </g>
      </g>
      <rect class="cls-14" x="237.65" y="143.28" width="185.76" height="133.41"/>
      <g id="Laptop">
        <path class="cls-15" d="M440.11,187.93H262.93a8.39,8.39,0,0,0-8.36,8.36V319.68a8.39,8.39,0,0,0,8.36,8.36H440.11a8.39,8.39,0,0,0,8.36-8.36V196.29A8.39,8.39,0,0,0,440.11,187.93Zm3,119.1a8.39,8.39,0,0,1-8.36,8.36H268.25a8.39,8.39,0,0,1-8.36-8.36V200.13a8.39,8.39,0,0,1,8.36-8.36H434.79a8.39,8.39,0,0,1,8.36,8.36Z" transform="translate(-20.99 -46.91)"/>
        <rect class="cls-16" x="301.6" y="280.56" width="58.31" height="10.96"/>
        <path class="cls-17" d="M350.16,346.91H296.43c-.17-8.49,6.95-9.94,6.95-9.94h93.56s7.12,1.45,6.95,9.94Z" transform="translate(-20.99 -46.91)"/>
      </g>
      <g id="InnerDashboard-2" data-name="InnerDashboard">
        <g id="InnerScreen-2" data-name="InnerScreen">
          <rect id="_Rectangle_5" data-name="&lt;Rectangle&gt;" class="cls-5" x="247.99" y="173.46" width="129.77" height="85.42" rx="4.25" ry="4.25"/>
          <g>
            <rect id="_Rectangle_6" data-name="&lt;Rectangle&gt;" class="cls-2" x="250.7" y="169.39" width="132.2" height="85.42" rx="4.25" ry="4.25"/>
            <g class="cls-18">
              <path class="cls-7" d="M266.77,224.1H403.33L403.24,295c0,3.46-2.48,6.64-5.93,6.74l-130.53,3.05Z" transform="translate(-20.99 -46.91)"/>
            </g>
          </g>
        </g>
        <g id="InnerData-2" data-name="InnerData">
          <g>
            <polygon class="cls-5" points="260.62 221.14 274.34 209.45 285.7 211.91 297.96 198.37 295.47 196.12 301.46 196.12 301.46 202.56 298.98 199.62 286.43 213.97 274.68 211.48 261.69 222.78 260.62 221.14"/>
            <rect class="cls-8" x="259.88" y="228.77" width="5.08" height="13.9"/>
            <rect class="cls-8" x="285.98" y="219.73" width="5.08" height="22.94"/>
            <rect class="cls-9" x="272.93" y="216.68" width="5.08" height="26.55"/>
            <rect class="cls-9" x="298.47" y="205.72" width="5.08" height="37.51"/>
            <g>
              <rect class="cls-9" x="311.52" y="228.05" width="3.73" height="3.73"/>
              <rect class="cls-8" x="311.52" y="235.13" width="3.73" height="3.73"/>
              <rect class="cls-10" x="316.63" y="229.08" width="12.71" height="1.67"/>
              <rect class="cls-10" x="316.63" y="235.89" width="12.71" height="1.67"/>
            </g>
            <g>
              <rect class="cls-9" x="334.57" y="228.05" width="3.73" height="3.73"/>
              <rect class="cls-8" x="334.57" y="235.13" width="3.73" height="3.73"/>
              <rect class="cls-10" x="339.68" y="229.08" width="12.71" height="1.67"/>
              <rect class="cls-10" x="339.68" y="235.89" width="12.71" height="1.67"/>
            </g>
            <g>
              <rect class="cls-9" x="354.82" y="228.05" width="3.73" height="3.73"/>
              <rect class="cls-8" x="354.82" y="235.13" width="3.73" height="3.73"/>
              <rect class="cls-10" x="359.94" y="229.08" width="12.71" height="1.67"/>
              <rect class="cls-10" x="359.94" y="235.89" width="12.71" height="1.67"/>
            </g>
            <g>
              <rect class="cls-11" x="312.88" y="187.75" width="54.92" height="1.58"/>
              <rect class="cls-11" x="312.88" y="190.3" width="54.92" height="1.58"/>
              <rect class="cls-12" x="312.65" y="193.18" width="54.92" height="2.6"/>
            </g>
            <g>
              <rect class="cls-11" x="312.88" y="197.24" width="54.92" height="1.58"/>
              <rect class="cls-11" x="312.88" y="199.79" width="54.92" height="1.58"/>
              <rect class="cls-12" x="312.65" y="202.67" width="54.92" height="4.07"/>
            </g>
            <g>
              <rect class="cls-11" x="312.76" y="207.47" width="54.92" height="1.58"/>
              <rect class="cls-11" x="312.76" y="210.01" width="54.92" height="1.58"/>
              <rect class="cls-12" x="312.54" y="212.89" width="54.92" height="4.69"/>
            </g>
          </g>
          <g>
            <rect class="cls-13" x="254.88" y="193.23" width="1.69" height="53.79"/>
            <rect class="cls-13" x="254.89" y="245.86" width="53.79" height="1.69"/>
            <rect class="cls-13" x="260.74" y="181.04" width="106.71" height="1.69"/>
          </g>
        </g>
        <g id="PowerLaptop-2" data-name="PowerLaptop">
          <circle class="cls-7" cx="355.39" cy="173.46" r="1.37"/>
          <circle class="cls-7" cx="363.27" cy="173.46" r="1.37"/>
          <circle class="cls-7" cx="370.56" cy="173.46" r="1.37"/>
        </g>
      </g>
    </g>
    <g id="Phone">
      <rect id="Background_White" data-name="Background White" class="cls-7" x="42.71" y="8.48" width="167.24" height="324.85" rx="13.75" ry="13.75"/>
      <g>
        <g>
          <path class="cls-19" d="M131.16,120.51h50.06a7.18,7.18,0,0,1,7.18,7.18v43.7H122.84V128.83A8.32,8.32,0,0,1,131.16,120.51Z" transform="translate(-20.99 -46.91)"/>
          <g>
            <path class="cls-20" d="M182.37,132.63s-2.45-1.79-8.15-1.79-14.19,10.93-19.73,11.9-11.74-6.36-17.45-7-11.25,4.57-11.25,4.57a1.44,1.44,0,0,1-.82-.59c-.38-.52.82-1.58.82-1.58s5.54-5.22,11.25-4.57,11.9,8,17.45,7,14-11.9,19.73-11.9,8.15,1.79,8.15,1.79S186.34,132.66,182.37,132.63Z" transform="translate(-20.99 -46.91)"/>
            <rect class="cls-21" x="108.83" y="113.22" width="5.33" height="1.74"/>
            <rect class="cls-21" x="116.7" y="113.22" width="5.33" height="1.74"/>
            <rect class="cls-21" x="125.83" y="113.22" width="5.33" height="1.74"/>
            <rect class="cls-21" x="134.09" y="113.22" width="5.33" height="1.74"/>
            <rect class="cls-21" x="142.9" y="113.22" width="5.33" height="1.74"/>
            <rect class="cls-21" x="151.38" y="113.22" width="5.33" height="1.74"/>
            <rect class="cls-22" x="116.7" y="95.45" width="5.33" height="16.31"/>
            <rect class="cls-23" x="125.83" y="102.63" width="5.33" height="9.13"/>
            <rect class="cls-23" x="134.09" y="100.56" width="5.33" height="11.2"/>
            <rect class="cls-23" x="142.9" y="95.45" width="5.33" height="16.31"/>
            <rect class="cls-23" x="108.54" y="106.98" width="5.33" height="4.78"/>
            <rect class="cls-23" x="151.38" y="85.78" width="5.33" height="25.98"/>
          </g>
          <g id="Message_Box" data-name="Message Box">
            <polygon class="cls-8" points="131.16 83.17 129.69 79.69 110.77 79.69 110.77 63.16 148.82 63.16 148.82 79.8 132.3 79.8 132.3 84.04 131.16 83.17"/>
            <g>
              <circle class="cls-24" cx="118.16" cy="70.88" r="3.81"/>
              <rect class="cls-7" x="125.09" y="67.49" width="18.43" height="1.39"/>
              <rect class="cls-7" x="125.09" y="70.19" width="18.43" height="1.39"/>
              <rect class="cls-7" x="125.09" y="74" width="18.43" height="1.39"/>
            </g>
          </g>
        </g>
        <g>
          <rect class="cls-19" x="110.19" y="130.68" width="66.25" height="24.14"/>
          <path class="cls-25" d="M174.11,186s-1.5-1.1-5-1.1-8.69,6.69-12.08,7.29-7.19-3.9-10.69-4.29-6.89,2.8-6.89,2.8a.88.88,0,0,1-.5-.36c-.23-.32.5-1,.5-1s3.4-3.2,6.89-2.8,7.29,4.89,10.69,4.29,8.59-7.29,12.08-7.29,5,1.1,5,1.1S176.55,186,174.11,186Z" transform="translate(-20.99 -46.91)"/>
          <rect class="cls-26" x="115.17" y="150" width="37.83" height="1.79"/>
          <rect class="cls-26" x="116.94" y="147.64" width="5.75" height="1.79"/>
          <rect class="cls-27" x="158.65" y="137.85" width="3.91" height="11.78"/>
          <rect class="cls-27" x="163.83" y="143.07" width="3.22" height="6.56"/>
          <rect class="cls-27" x="168.27" y="145.68" width="3.67" height="3.95"/>
        </g>
        <g>
          <rect class="cls-28" x="171.54" y="86.43" width="26.09" height="36.09" rx="2" ry="2"/>
          <path class="cls-29" d="M205.9,137.8a8.15,8.15,0,1,0,8.15,8.15A8.15,8.15,0,0,0,205.9,137.8Zm-.33,13a4.84,4.84,0,1,1,4.84-4.84A4.84,4.84,0,0,1,205.58,150.79Z" transform="translate(-20.99 -46.91)"/>
          <rect class="cls-30" x="179.26" y="109.26" width="11.52" height="1.3"/>
          <rect class="cls-30" x="175.46" y="111.76" width="18.26" height="1.3"/>
          <rect class="cls-30" x="176.82" y="114.3" width="15.55" height="1.3"/>
        </g>
        <g>
          <polygon class="cls-28" points="86.8 94.31 86.94 88.84 94.54 88.84 94.54 72.08 66.31 80.12 66.31 89.91 84.68 89.91 86.8 94.31"/>
          <polygon class="cls-31" points="71.61 82.81 89.95 78.9 89.95 84.04 71.12 87.46 70.79 83.18 71.61 82.81"/>
          <polygon class="cls-32" points="91.3 75.55 91.92 73.65 92.82 75.7 94.19 75.7 92.75 76.77 92.24 78.35 91.45 76.77 89.87 76.37 91.3 75.55"/>
        </g>
        <g>
          <g>
            <rect class="cls-33" x="166.85" y="219.88" width="33.4" height="9.24" rx="2.93" ry="2.93" transform="translate(135.78 -111.15) rotate(33.97)"/>
            <rect class="cls-34" x="103.2" y="67.08" width="33.4" height="9.24" rx="2.93" ry="2.93" transform="translate(229.58 -24.65) rotate(128.39)"/>
            <circle class="cls-35" cx="123.67" cy="203.41" r="4.77"/>
          </g>
          <rect class="cls-36" x="184.75" y="37.4" width="9.19" height="1.96"/>
          <rect class="cls-37" x="184.75" y="40.66" width="9.19" height="1.96"/>
          <rect class="cls-38" x="184.75" y="43.92" width="9.19" height="1.96"/>
          <polygon class="cls-39" points="63.64 36.64 59.02 41.31 64.62 46.64 65.65 45.39 61.2 41.31 65.65 36.96 64.13 36.04 63.64 36.64"/>
          <g>
            <path class="cls-40" d="M129,84.31h.67V89h2.23v.57H129Z" transform="translate(-20.99 -46.91)"/>
            <path class="cls-41" d="M135.93,87.62a1.83,1.83,0,0,1-1.87,2,1.78,1.78,0,0,1-1.8-1.93,1.83,1.83,0,0,1,1.86-2A1.77,1.77,0,0,1,135.93,87.62Zm-3,0c0,.82.47,1.44,1.14,1.44s1.14-.61,1.14-1.46c0-.64-.32-1.44-1.12-1.44S133,86.95,133,87.66Z" transform="translate(-20.99 -46.91)"/>
            <path class="cls-42" d="M136.8,86.95c0-.44,0-.82,0-1.17h.6l0,.74h0a1.12,1.12,0,0,1,1-.82l.19,0v.64l-.23,0a1,1,0,0,0-.91.87,1.87,1.87,0,0,0,0,.32v2h-.67Z" transform="translate(-20.99 -46.91)"/>
            <path class="cls-43" d="M139.63,87.78a1.2,1.2,0,0,0,1.29,1.3,2.47,2.47,0,0,0,1-.19l.12.49a3,3,0,0,1-1.25.23A1.74,1.74,0,0,1,139,87.72a1.82,1.82,0,0,1,1.76-2,1.59,1.59,0,0,1,1.55,1.77,2.59,2.59,0,0,1,0,.32Zm2-.49a1,1,0,0,0-.94-1.11,1.13,1.13,0,0,0-1,1.11Z" transform="translate(-20.99 -46.91)"/>
            <path class="cls-44" d="M143.13,86.8c0-.39,0-.7,0-1h.6l0,.6h0a1.29,1.29,0,0,1,1.18-.69,1.11,1.11,0,0,1,1.06.75h0a1.55,1.55,0,0,1,.42-.49,1.28,1.28,0,0,1,.83-.26c.5,0,1.23.32,1.23,1.63v2.21h-.67V87.41c0-.72-.26-1.15-.81-1.15a.88.88,0,0,0-.81.62,1.14,1.14,0,0,0-.05.34v2.32h-.67V87.28c0-.6-.26-1-.78-1a1,1,0,0,0-.9,1v2.26h-.67Z" transform="translate(-20.99 -46.91)"/>
            <path class="cls-45" d="M152,84.73a.42.42,0,0,1-.84,0,.41.41,0,0,1,.43-.43A.4.4,0,0,1,152,84.73Zm-.76,4.8V85.78h.68v3.75Z" transform="translate(-20.99 -46.91)"/>
            <path class="cls-46" d="M153.05,87c0-.48,0-.87,0-1.22h.61l0,.64h0A1.47,1.47,0,0,1,155,85.7a1.7,1.7,0,0,1,1.59,1.9,1.77,1.77,0,0,1-1.7,2,1.32,1.32,0,0,1-1.15-.59h0v2h-.67Zm.67,1a1.5,1.5,0,0,0,0,.28,1.05,1.05,0,0,0,1,.8c.72,0,1.14-.59,1.14-1.45s-.39-1.39-1.11-1.39a1.18,1.18,0,0,0-1.08,1.12Z" transform="translate(-20.99 -46.91)"/>
            <path class="cls-47" d="M157.37,88.83a1.78,1.78,0,0,0,.9.27c.5,0,.73-.25.73-.56s-.19-.5-.7-.69c-.67-.24-1-.61-1-1.06a1.16,1.16,0,0,1,1.29-1.1,1.87,1.87,0,0,1,.92.23l-.17.5a1.46,1.46,0,0,0-.77-.22c-.4,0-.63.23-.63.51s.22.45.71.64c.65.25,1,.57,1,1.13s-.51,1.12-1.4,1.12a2.13,2.13,0,0,1-1.05-.26Z" transform="translate(-20.99 -46.91)"/>
            <path class="cls-48" d="M163.67,88.51c0,.39,0,.73,0,1h-.6l0-.61h0a1.41,1.41,0,0,1-1.24.7c-.59,0-1.29-.33-1.29-1.64V85.78h.68v2.08c0,.71.22,1.19.84,1.19a1,1,0,0,0,.9-.62,1,1,0,0,0,.06-.35v-2.3h.68Z" transform="translate(-20.99 -46.91)"/>
            <path class="cls-49" d="M164.8,86.8c0-.39,0-.7,0-1h.6l0,.6h0a1.29,1.29,0,0,1,1.18-.69,1.11,1.11,0,0,1,1.06.75h0a1.55,1.55,0,0,1,.42-.49,1.28,1.28,0,0,1,.83-.26c.5,0,1.23.32,1.23,1.63v2.21h-.67V87.41c0-.72-.26-1.15-.81-1.15a.88.88,0,0,0-.81.62,1.14,1.14,0,0,0-.05.34v2.32h-.67V87.28c0-.6-.26-1-.78-1a1,1,0,0,0-.9,1v2.26h-.67Z" transform="translate(-20.99 -46.91)"/>
          </g>
          <polygon class="cls-50" points="192.09 18.26 192.09 21.85 199.38 21.85 199.38 20.06 200.79 20.06 200.79 18.81 199.21 18.81 199.21 17.18 192.09 17.18 192.09 18.26"/>
          <rect class="cls-51" x="55.05" y="18.16" width="15.98" height="2.77"/>
        </g>
        <g id="Human">
          <g>
            <path class="cls-52" d="M109.2,167.06l.84-3.17,2.76,0a1.94,1.94,0,0,0,1.91-2l-.34-10.34-13.21-.16.92,15.66Z" transform="translate(-20.99 -46.91)"/>
            <path class="cls-53" d="M115.62,146.2s1.61,2.2-.6,4.89-4.89,2.28-5.14,3.42-1.63,1.39-.9,2.77,1.47,1.22,1.47,1.22.73,3.1-2.94,3.26-4.48.57-5.3-1.14-3.26-3.18-2.77-7.75a7.65,7.65,0,0,1,5.3-6.69c1.39-.41,4.89.57,6,0s.9-1.55,2.45-1.79S115.62,146.2,115.62,146.2Z" transform="translate(-20.99 -46.91)"/>
          </g>
        </g>
        <g>
          <path id="_Path_" data-name="&lt;Path&gt;" class="cls-54" d="M118.9,257l2.16-75.87s15.66-5.22,21.2-17,7.5-12.72,7.5-12.72,2.61-3.75,1.14-5.87.45-4.89.45-4.89l-2.08-1s-11.42,22.67-21,25.11-8,2.94-9.62,2.45-19.41-2.94-25.93.49S80,189.91,80.78,197.24s11.42,4.4,11.42,4.4-2.12,5.22-.33,5.54-5.06,39.46-5.06,39.46l11.25,2.45,7.66-30.33,2.61-.33L108,257l10.11,2.57Z" transform="translate(-20.99 -46.91)"/>
          <path class="cls-55" d="M91.87,207.19l28.43.64L118.9,257l-.77,2.57L108,257l.33-38.53-2.61.33L98.06,249.1l-11.25-2.45s5.17-33.15,5.26-35.73A14.92,14.92,0,0,0,91.87,207.19Z" transform="translate(-20.99 -46.91)"/>
          <path class="cls-52" d="M147.58,154.4l-4.61-4,6.54-10.74,2.16,1a5.59,5.59,0,0,0-.46,4.89c1,3,0,4.59-1.18,5.87S147.79,153.37,147.58,154.4Z" transform="translate(-20.99 -46.91)"/>
        </g>
        <g id="UnderHood">
          <path class="cls-56" d="M60.88,250.32s8.7-19.46,27.18-15.76,42.83,24.35,48.92,25.66,10.87,1.74,30.44-7.39,31.53-2.61,35,.87,15.87,17.39,19.79,17.39h12.18v62.84H60.88Z" transform="translate(-20.99 -46.91)"/>
          <path class="cls-57" d="M63.27,252.39a36.41,36.41,0,0,1,32.83-10c20.44,3.91,25.66,28.27,46.1,26.74s18.92-14.76,44.36-13.69,23,20.86,34.79,22.82,14.57,1.09,14.57,1.09l-2.61,87.19-170,5.22Z" transform="translate(-20.99 -46.91)"/>
          <path class="cls-58" d="M60.88,352.08s7.18-10.76,20.22-11.42,17.94-2,36.2,13.37,35.22,11.09,42.07,7.5,15-12.07,30.66-10.44,25.77,13,34.9,13.83,9.46,0,9.46,0l-17,20.41H77.83Z" transform="translate(-20.99 -46.91)"/>
          <rect class="cls-59" x="89.19" y="347.38" width="28.05" height="7.83" rx="2.48" ry="2.48" transform="translate(-252.79 156.66) rotate(-49.83)"/>
          <circle class="cls-7" cx="113.49" cy="303.21" r="2.88"/>
          <circle class="cls-60" cx="128.33" cy="303.21" r="2.88"/>
          <circle class="cls-61" cx="142.75" cy="303.21" r="2.88"/>
          <ellipse class="cls-62" cx="210.69" cy="334.4" rx="9.68" ry="7.99" transform="translate(-195.74 200.01) rotate(-45)"/>
          <circle class="cls-7" cx="58.7" cy="247.98" r="1.96"/>
          <circle class="cls-7" cx="67.07" cy="268.2" r="1.38"/>
          <circle class="cls-7" cx="59.89" cy="263.86" r="1.38"/>
          <circle class="cls-7" cx="51.74" cy="266.14" r="1.38"/>
        </g>
      </g>
      <g id="Phone-2" data-name="Phone">
        <path class="cls-63" d="M211.23,46.91H85.34A27.8,27.8,0,0,0,57.61,74.63V361a27.8,27.8,0,0,0,27.72,27.72H211.23A27.8,27.8,0,0,0,239,361V74.63A27.8,27.8,0,0,0,211.23,46.91Zm19.9,315.5c0,10.28-11,18.7-21.31,18.7H93.16a27.8,27.8,0,0,1-27.72-27.72V82.28c0-15.25,12.48-25.11,27.72-25.11H200.79c15.25,0,30.33,9.87,30.33,25.11Z" transform="translate(-20.99 -46.91)"/>
        <path class="cls-63" d="M99.14,54.56s-.43,10.62,12.18,11.27,73.49,0,73.49,0,7.83-1.23,8.91-11.27Z" transform="translate(-20.99 -46.91)"/>
      </g>
    </g>
  </g>
  <g>
    <path class="cls-7" d="M114,293.41a3.87,3.87,0,0,1-.71,1.61,3.58,3.58,0,0,1-1.32,1.07,4,4,0,0,1-1.76.38,3.93,3.93,0,0,1-2-.52,3.69,3.69,0,0,1-1.39-1.44,4.55,4.55,0,0,1,0-4.14,3.57,3.57,0,0,1,1.38-1.42,4,4,0,0,1,2-.51,3.1,3.1,0,0,1,2,.61,2.81,2.81,0,0,1,1,1.7h0v-2.21H114v3.06h-.78a2.91,2.91,0,0,0-1-1.76,3,3,0,0,0-2-.64,3.2,3.2,0,0,0-1.62.4,2.76,2.76,0,0,0-1.09,1.14,3.86,3.86,0,0,0,0,3.38,2.9,2.9,0,0,0,1.1,1.16,3.07,3.07,0,0,0,1.59.41,3,3,0,0,0,2-.66,3,3,0,0,0,1-1.79Z" transform="translate(-20.99 -46.91)"/>
    <path class="cls-7" d="M118.93,290.77v.84a2,2,0,0,0-.44-.05,1.49,1.49,0,0,0-1.24.58,2.48,2.48,0,0,0-.46,1.58v2h1.08v.64h-3v-.64h1.13v-4.25h-1.13v-.63h1.88v1.68h0a2.24,2.24,0,0,1,.57-1.3,1.59,1.59,0,0,1,1.18-.47Z" transform="translate(-20.99 -46.91)"/>
    <path class="cls-7" d="M121,296.08a2.59,2.59,0,0,1-1-1,3,3,0,0,1-.36-1.47,3,3,0,0,1,.36-1.49,2.61,2.61,0,0,1,1-1,3.24,3.24,0,0,1,3,0,2.61,2.61,0,0,1,1,1,3,3,0,0,1,.36,1.49,3,3,0,0,1-.36,1.47,2.59,2.59,0,0,1-1,1,3.28,3.28,0,0,1-3,0Zm2.6-.59a1.89,1.89,0,0,0,.74-.76,2.34,2.34,0,0,0,.26-1.13,2.38,2.38,0,0,0-.26-1.13,2,2,0,0,0-.74-.78,2.13,2.13,0,0,0-1.1-.28,2.11,2.11,0,0,0-1.09.28,1.94,1.94,0,0,0-.74.78,2.38,2.38,0,0,0-.26,1.13,2.34,2.34,0,0,0,.26,1.13,1.89,1.89,0,0,0,.74.76,2.18,2.18,0,0,0,1.09.27A2.2,2.2,0,0,0,123.56,295.49Z" transform="translate(-20.99 -46.91)"/>
    <path class="cls-7" d="M130.53,293.74a1.39,1.39,0,0,1,.49,1.13,1.46,1.46,0,0,1-.48,1.16,2,2,0,0,1-1.37.42,2.1,2.1,0,0,1-1.26-.34,1.42,1.42,0,0,1-.58-.89h0v1.13h-.75v-1.74h.75a1.4,1.4,0,0,0,.56.9,1.86,1.86,0,0,0,1.15.34,1.55,1.55,0,0,0,.95-.25.84.84,0,0,0,.33-.72.78.78,0,0,0-.34-.68,2.86,2.86,0,0,0-1.16-.36,3.76,3.76,0,0,1-1.68-.59,1.28,1.28,0,0,1-.51-1.06,1.34,1.34,0,0,1,.46-1.06,1.89,1.89,0,0,1,1.28-.4,1.84,1.84,0,0,1,1.18.34,1.45,1.45,0,0,1,.52.88h0v-1.11h.75v1.7h-.75a1.36,1.36,0,0,0-.52-.87,1.7,1.7,0,0,0-1.08-.33,1.37,1.37,0,0,0-.84.23.73.73,0,0,0-.31.61.7.7,0,0,0,.37.62,3.47,3.47,0,0,0,1.2.36A3.4,3.4,0,0,1,130.53,293.74Z" transform="translate(-20.99 -46.91)"/>
    <path class="cls-7" d="M136.21,293.74a1.39,1.39,0,0,1,.49,1.13,1.46,1.46,0,0,1-.48,1.16,2,2,0,0,1-1.37.42,2.1,2.1,0,0,1-1.26-.34,1.42,1.42,0,0,1-.58-.89h0v1.13h-.75v-1.74H133a1.4,1.4,0,0,0,.56.9,1.86,1.86,0,0,0,1.15.34,1.55,1.55,0,0,0,.95-.25.84.84,0,0,0,.33-.72.78.78,0,0,0-.34-.68,2.86,2.86,0,0,0-1.16-.36,3.76,3.76,0,0,1-1.68-.59,1.28,1.28,0,0,1-.51-1.06,1.34,1.34,0,0,1,.46-1.06,1.89,1.89,0,0,1,1.28-.4,1.84,1.84,0,0,1,1.18.34,1.45,1.45,0,0,1,.52.88h0v-1.11h.75v1.7h-.75a1.36,1.36,0,0,0-.52-.87,1.7,1.7,0,0,0-1.08-.33,1.37,1.37,0,0,0-.84.23.73.73,0,0,0-.31.61.7.7,0,0,0,.37.62,3.47,3.47,0,0,0,1.2.36A3.4,3.4,0,0,1,136.21,293.74Z" transform="translate(-20.99 -46.91)"/>
    <path class="cls-7" d="M146.9,289.08a1.85,1.85,0,0,1,.67,1.54,2.06,2.06,0,0,1-.62,1.52,2.92,2.92,0,0,1-2.1.62h-2.12v2.89H144v.71h-3.28v-.71H142v-6.4h-1.26v-.71h4.2A3.14,3.14,0,0,1,146.9,289.08Zm-.6,2.63a1.38,1.38,0,0,0,0-2.11,2.39,2.39,0,0,0-1.41-.36h-2.14v2.83h2.15A2.36,2.36,0,0,0,146.3,291.71Z" transform="translate(-20.99 -46.91)"/>
    <path class="cls-7" d="M151.07,295.71v.64h-3v-.64h1.13v-6.92h-1.13v-.64h1.88v7.56Z" transform="translate(-20.99 -46.91)"/>
    <path class="cls-7" d="M157.48,295.71v.64h-1.12a.4.4,0,0,1-.32-.13.56.56,0,0,1-.11-.37v-1.24h0a2,2,0,0,1-2.14,1.82,2,2,0,0,1-1.31-.38,1.4,1.4,0,0,1-.45-1.13,1.37,1.37,0,0,1,.39-1,2.58,2.58,0,0,1,1.27-.55l2.26-.48v-.22q0-1.23-1.46-1.23a1.84,1.84,0,0,0-1.06.26,1.31,1.31,0,0,0-.5.83l-.72-.16a1.84,1.84,0,0,1,.72-1.22,2.73,2.73,0,0,1,1.59-.4,2.53,2.53,0,0,1,1.63.45,1.72,1.72,0,0,1,.55,1.41v3.13Zm-2.1-.56a2.53,2.53,0,0,0,.58-1.77l-2.17.49a1.56,1.56,0,0,0-.76.35.87.87,0,0,0-.24.65q0,.9,1.09.9A2,2,0,0,0,155.38,295.15Z" transform="translate(-20.99 -46.91)"/>
    <path class="cls-7" d="M160.5,295.76a.61.61,0,0,0,.51-.22,1,1,0,0,0,.18-.65v-.52h.66v.52q0,1.56-1.36,1.56a1.33,1.33,0,0,1-1.06-.41,1.72,1.72,0,0,1-.35-1.15v-3.43h-1v-.63h1v-1.4h.75v1.4h2v.63h-2v3.43Q159.83,295.76,160.5,295.76Z" transform="translate(-20.99 -46.91)"/>
    <path class="cls-7" d="M162.78,295.71h1.09v-4.25h-1.09v-.63h1.09V290a2,2,0,0,1,.46-1.41,1.78,1.78,0,0,1,1.38-.5,1.55,1.55,0,0,1,1.72,1.3l-.66.21a1,1,0,0,0-1.06-.82q-1.09,0-1.09,1.23v.86h1.84v.63h-1.84v4.25h1.33v.64h-3.17Z" transform="translate(-20.99 -46.91)"/>
    <path class="cls-7" d="M168.65,296.08a2.59,2.59,0,0,1-1-1,3,3,0,0,1-.36-1.47,3,3,0,0,1,.36-1.49,2.61,2.61,0,0,1,1-1,3.24,3.24,0,0,1,3,0,2.61,2.61,0,0,1,1,1,3,3,0,0,1,.36,1.49,3,3,0,0,1-.36,1.47,2.59,2.59,0,0,1-1,1,3.28,3.28,0,0,1-3,0Zm2.6-.59a1.89,1.89,0,0,0,.74-.76,2.34,2.34,0,0,0,.26-1.13,2.38,2.38,0,0,0-.26-1.13,2,2,0,0,0-.74-.78,2.13,2.13,0,0,0-1.1-.28,2.11,2.11,0,0,0-1.09.28,1.94,1.94,0,0,0-.74.78,2.38,2.38,0,0,0-.26,1.13,2.34,2.34,0,0,0,.26,1.13,1.89,1.89,0,0,0,.74.76,2.18,2.18,0,0,0,1.09.27A2.2,2.2,0,0,0,171.24,295.49Z" transform="translate(-20.99 -46.91)"/>
    <path class="cls-7" d="M178.12,290.77v.84a2,2,0,0,0-.44-.05,1.49,1.49,0,0,0-1.24.58,2.48,2.48,0,0,0-.46,1.58v2h1.08v.64h-3v-.64h1.13v-4.25h-1.13v-.63H176v1.68h0a2.24,2.24,0,0,1,.57-1.3,1.59,1.59,0,0,1,1.18-.47Z" transform="translate(-20.99 -46.91)"/>
    <path class="cls-7" d="M189.26,295.71v.64h-2.77v-.64h1v-2.9a1.66,1.66,0,0,0-.31-1.08,1.13,1.13,0,0,0-.93-.37,1.61,1.61,0,0,0-.92.27,1.8,1.8,0,0,0-.63.78,2.92,2.92,0,0,0-.23,1.2v2.1h1.07v.64h-2.79v-.64h1v-2.9a1.67,1.67,0,0,0-.31-1.08,1.13,1.13,0,0,0-.93-.37,1.61,1.61,0,0,0-.92.27,1.8,1.8,0,0,0-.63.78,2.92,2.92,0,0,0-.23,1.2v2.1h1v.64h-2.84v-.64h1.1v-4.25h-1.1v-.63h1.85v1.67h0a2.07,2.07,0,0,1,.66-1.34,2,2,0,0,1,1.35-.46,1.61,1.61,0,0,1,1.24.46,2.08,2.08,0,0,1,.48,1.34h0a2.07,2.07,0,0,1,.66-1.34,2,2,0,0,1,1.33-.46,1.59,1.59,0,0,1,1.29.51,2.23,2.23,0,0,1,.43,1.47v3Z" transform="translate(-20.99 -46.91)"/>
    <path class="cls-7" d="M148.54,301v.71h-.73l-2.39,7.1h-.92l-2.08-6.12h-.05l-2.11,6.12h-.91l-2.38-7.1h-.73V301h3.1v.71h-1.57l2,6.15h0l2.14-6.15h-1.34V301h3.51v.71h-1.3l2.11,6.15H145l2-6.15h-1.63V301Z" transform="translate(-20.99 -46.91)"/>
    <path class="cls-7" d="M151.43,308.17v.64H148.5v-.64h1.12v-4.25H148.5v-.63h1.87v4.88Zm-1-7.22v1h-1v-1Z" transform="translate(-20.99 -46.91)"/>
    <path class="cls-7" d="M155.21,308.17v.64h-3v-.64h1.13v-6.92h-1.13v-.64h1.88v7.56Z" transform="translate(-20.99 -46.91)"/>
    <path class="cls-7" d="M158.89,308.17v.64h-3v-.64H157v-6.92h-1.13v-.64h1.88v7.56Z" transform="translate(-20.99 -46.91)"/>
    <path class="cls-7" d="M109.62,314.17v6.4h1.25v.71h-3.35v-.71h1.33v-6.4h0l-2.79,7.1h-.76l-2.78-7.1h0v6.4h1.3v.71h-3.28v-.71h1.26v-6.4h-1.26v-.71H103l2.65,6.79,2.66-6.76v0h2.55v.71Z" transform="translate(-20.99 -46.91)"/>
    <path class="cls-7" d="M117.2,320.63v.64h-1.12a.4.4,0,0,1-.32-.13.56.56,0,0,1-.11-.37v-1.24h0a2,2,0,0,1-2.14,1.82,2,2,0,0,1-1.31-.38,1.4,1.4,0,0,1-.45-1.13,1.37,1.37,0,0,1,.39-1,2.58,2.58,0,0,1,1.27-.55l2.26-.48v-.22q0-1.23-1.46-1.23a1.84,1.84,0,0,0-1.06.26,1.31,1.31,0,0,0-.5.83l-.72-.16a1.84,1.84,0,0,1,.72-1.22,2.73,2.73,0,0,1,1.59-.4,2.53,2.53,0,0,1,1.63.45,1.72,1.72,0,0,1,.55,1.41v3.13Zm-2.1-.56a2.53,2.53,0,0,0,.58-1.77l-2.17.49a1.56,1.56,0,0,0-.76.35.87.87,0,0,0-.24.65q0,.9,1.09.9A2,2,0,0,0,115.1,320.08Z" transform="translate(-20.99 -46.91)"/>
    <path class="cls-7" d="M124.65,320.63v.64h-2.85v-.64H123l-1.68-2.25-1.52,1.23v1h1v.64h-2.84v-.64h1.11v-6.92h-1.11v-.64h1.86v5.81l3-2.49h-1.69v-.63h3.45v.63h-.78l-1.93,1.56,2.08,2.69Z" transform="translate(-20.99 -46.91)"/>
    <path class="cls-7" d="M129.54,316a2.47,2.47,0,0,1,.94,1,3.2,3.2,0,0,1,.33,1.49c0,.07,0,.12,0,.16s0,.07,0,.09h-4.68a2.09,2.09,0,0,0,.61,1.4,2,2,0,0,0,1.42.53,2.06,2.06,0,0,0,1.13-.31,1.88,1.88,0,0,0,.72-.85l.72.27a2.43,2.43,0,0,1-1,1.15,3.19,3.19,0,0,1-3,.06,2.45,2.45,0,0,1-1-1,3.38,3.38,0,0,1,0-3,2.52,2.52,0,0,1,1-1,2.79,2.79,0,0,1,1.44-.37A2.73,2.73,0,0,1,129.54,316Zm.52,2.17a2.12,2.12,0,0,0-.6-1.35,1.85,1.85,0,0,0-1.35-.51,1.89,1.89,0,0,0-1.35.51,2.11,2.11,0,0,0-.63,1.35Z" transform="translate(-20.99 -46.91)"/>
    <path class="cls-7" d="M142.45,313.47v.71h-.73l-2.79,3.62v2.77h1.25v.71H136.9v-.71h1.26v-2.78l-2.78-3.61h-.73v-.71h3.1v.71H136.3l2.25,2.94h.06l2.25-2.94h-1.54v-.71Z" transform="translate(-20.99 -46.91)"/>
    <path class="cls-7" d="M142.94,321a2.59,2.59,0,0,1-1-1,3,3,0,0,1-.36-1.47,3,3,0,0,1,.36-1.49,2.61,2.61,0,0,1,1-1,3.24,3.24,0,0,1,3,0,2.61,2.61,0,0,1,1,1,3,3,0,0,1,.36,1.49A3,3,0,0,1,147,320a2.59,2.59,0,0,1-1,1,3.28,3.28,0,0,1-3,0Zm2.6-.59a1.89,1.89,0,0,0,.74-.76,2.34,2.34,0,0,0,.26-1.13,2.38,2.38,0,0,0-.26-1.13,2,2,0,0,0-.74-.78,2.13,2.13,0,0,0-1.1-.28,2.11,2.11,0,0,0-1.09.28,1.94,1.94,0,0,0-.74.78,2.38,2.38,0,0,0-.26,1.13,2.34,2.34,0,0,0,.26,1.13,1.89,1.89,0,0,0,.74.76,2.18,2.18,0,0,0,1.09.27A2.2,2.2,0,0,0,145.54,320.42Z" transform="translate(-20.99 -46.91)"/>
    <path class="cls-7" d="M154.79,320.63v.64H153v-1.68h0a2.12,2.12,0,0,1-.68,1.34,2,2,0,0,1-1.37.47,1.62,1.62,0,0,1-1.32-.52,2.25,2.25,0,0,1-.44-1.48v-3h-1v-.63h1.75v3.52a1.67,1.67,0,0,0,.31,1.08,1.14,1.14,0,0,0,.95.38,1.7,1.7,0,0,0,.95-.27,1.79,1.79,0,0,0,.65-.78,2.86,2.86,0,0,0,.23-1.2v-2.1h-1.07v-.63h1.82v4.88Z" transform="translate(-20.99 -46.91)"/>
    <path class="cls-7" d="M166,314.17v6.4h1.26v.71H164v-.71h1.25v-2.89h-4.69v2.89h1.26v.71h-3.28v-.71h1.26v-6.4h-1.26v-.71h3.28v.71h-1.26V317h4.69v-2.83H164v-.71h3.28v.71Z" transform="translate(-20.99 -46.91)"/>
    <path class="cls-7" d="M173.61,320.63v.64h-1.12a.4.4,0,0,1-.32-.13.56.56,0,0,1-.11-.37v-1.24h0a2,2,0,0,1-2.14,1.82,2,2,0,0,1-1.31-.38,1.4,1.4,0,0,1-.45-1.13,1.37,1.37,0,0,1,.39-1,2.58,2.58,0,0,1,1.27-.55l2.26-.48v-.22q0-1.23-1.46-1.23a1.84,1.84,0,0,0-1.06.26,1.31,1.31,0,0,0-.5.83l-.72-.16A1.84,1.84,0,0,1,169,316a2.73,2.73,0,0,1,1.59-.4,2.53,2.53,0,0,1,1.63.45,1.72,1.72,0,0,1,.55,1.41v3.13Zm-2.1-.56a2.53,2.53,0,0,0,.58-1.77l-2.17.49a1.56,1.56,0,0,0-.76.35.87.87,0,0,0-.24.65q0,.9,1.09.9A2,2,0,0,0,171.51,320.08Z" transform="translate(-20.99 -46.91)"/>
    <path class="cls-7" d="M179.75,316a2.53,2.53,0,0,1,.94,1,3.43,3.43,0,0,1,0,3,2.46,2.46,0,0,1-1,1,2.76,2.76,0,0,1-1.43.36,2.51,2.51,0,0,1-1.2-.29,2.44,2.44,0,0,1-.89-.82v2.53h1.09v.64h-2.95v-.64h1.11v-6.43h-1.11v-.63h1.86v1.6h0a2.18,2.18,0,0,1,.71-1.23,2.09,2.09,0,0,1,1.43-.48A2.56,2.56,0,0,1,179.75,316Zm-.45,4.42a1.83,1.83,0,0,0,.71-.77,2.52,2.52,0,0,0,.25-1.14,2.44,2.44,0,0,0-.26-1.14,1.94,1.94,0,0,0-.72-.78,2.15,2.15,0,0,0-2.12,0,1.88,1.88,0,0,0-.71.78,2.54,2.54,0,0,0-.25,1.15,2.26,2.26,0,0,0,.54,1.58,1.9,1.9,0,0,0,1.48.6A2.06,2.06,0,0,0,179.3,320.43Z" transform="translate(-20.99 -46.91)"/>
    <path class="cls-7" d="M187.1,316a2.53,2.53,0,0,1,.94,1,3.43,3.43,0,0,1,0,3,2.46,2.46,0,0,1-1,1,2.76,2.76,0,0,1-1.43.36,2.51,2.51,0,0,1-1.2-.29,2.44,2.44,0,0,1-.89-.82v2.53h1.09v.64h-2.95v-.64h1.11v-6.43h-1.11v-.63h1.86v1.6h0a2.18,2.18,0,0,1,.71-1.23,2.09,2.09,0,0,1,1.43-.48A2.56,2.56,0,0,1,187.1,316Zm-.45,4.42a1.83,1.83,0,0,0,.71-.77,2.52,2.52,0,0,0,.25-1.14,2.44,2.44,0,0,0-.26-1.14,1.94,1.94,0,0,0-.72-.78,2.15,2.15,0,0,0-2.12,0,1.88,1.88,0,0,0-.71.78,2.54,2.54,0,0,0-.25,1.15,2.26,2.26,0,0,0,.54,1.58,1.9,1.9,0,0,0,1.48.6A2.06,2.06,0,0,0,186.65,320.43Z" transform="translate(-20.99 -46.91)"/>
    <path class="cls-7" d="M195.1,315.75v.63h-.69L192.13,322a2.26,2.26,0,0,1-.88,1.07,2.65,2.65,0,0,1-1.44.37h-.54v-.66h.54a2.08,2.08,0,0,0,1-.24,1.38,1.38,0,0,0,.62-.7l.2-.49-2-5h-.77v-.63h2.64v.63h-1.06l1.63,4.06h0l1.6-4.06h-1.14v-.63Z" transform="translate(-20.99 -46.91)"/>
  </g>
</svg>
