<svg id="Layer_2" data-name="Layer 2" xmlns="http://www.w3.org/2000/svg" xmlns:xlink="http://www.w3.org/1999/xlink" viewBox="0 0 814.14 550">
  <defs>
    <style>
      .cls-1 {
        fill: url(#linear-gradient);
      }

      .cls-2 {
        fill: url(#linear-gradient-2);
      }

      .cls-3 {
        fill: #eae6ff;
      }

      .cls-4 {
        opacity: 0.5;
      }

      .cls-5 {
        fill: #8a8ac1;
      }

      .cls-6 {
        clip-path: url(#clip-path);
      }

      .cls-7 {
        fill: #fff;
      }

      .cls-8 {
        fill: #edc078;
      }

      .cls-9 {
        fill: #a7b1d9;
      }

      .cls-10 {
        fill: #fbf6f2;
      }

      .cls-11 {
        fill: #f5f5f5;
      }

      .cls-12 {
        fill: #f9f9f9;
      }

      .cls-13 {
        fill: #cecece;
      }

      .cls-14 {
        fill: #4c419e;
        opacity: 0.2;
      }

      .cls-15 {
        fill: url(#linear-gradient-4);
      }

      .cls-16 {
        fill: #4a41a3;
      }

      .cls-17 {
        fill: #5a52bd;
      }

      .cls-18 {
        clip-path: url(#clip-path-2);
      }

      .cls-19 {
        fill: #e8e8ea;
      }

      .cls-20 {
        fill: #c3c1dc;
      }

      .cls-21 {
        fill: #d8d8dd;
      }

      .cls-22 {
        fill: #a8deca;
      }

      .cls-23 {
        fill: #b6e3c3;
      }

      .cls-24 {
        fill: none;
      }

      .cls-24, .cls-57 {
        stroke: #fff;
        stroke-miterlimit: 10;
      }

      .cls-25 {
        fill: url(#linear-gradient-6);
      }

      .cls-26 {
        fill: #8a8ab6;
      }

      .cls-27 {
        fill: #df99ac;
      }

      .cls-28 {
        fill: #e9e9ea;
      }

      .cls-29 {
        fill: url(#linear-gradient-7);
      }

      .cls-30 {
        fill: #6968a2;
      }

      .cls-31 {
        fill: #9496bb;
      }

      .cls-32 {
        fill: #d00d36;
      }

      .cls-33 {
        fill: url(#linear-gradient-8);
      }

      .cls-34 {
        fill: url(#linear-gradient-9);
      }

      .cls-35 {
        fill: #f0aebb;
      }

      .cls-36 {
        fill: url(#linear-gradient-10);
      }

      .cls-37 {
        fill: url(#linear-gradient-11);
      }

      .cls-38 {
        fill: url(#linear-gradient-12);
      }

      .cls-39 {
        fill: url(#linear-gradient-13);
      }

      .cls-40 {
        fill: url(#linear-gradient-14);
      }

      .cls-41 {
        fill: url(#linear-gradient-15);
      }

      .cls-42 {
        fill: url(#linear-gradient-16);
      }

      .cls-43 {
        fill: url(#linear-gradient-17);
      }

      .cls-44 {
        fill: url(#linear-gradient-18);
      }

      .cls-45 {
        fill: url(#linear-gradient-19);
      }

      .cls-46 {
        fill: url(#linear-gradient-20);
      }

      .cls-47 {
        fill: url(#linear-gradient-21);
      }

      .cls-48 {
        fill: url(#linear-gradient-22);
      }

      .cls-49 {
        fill: url(#linear-gradient-23);
      }

      .cls-50 {
        fill: url(#linear-gradient-24);
      }

      .cls-51 {
        fill: url(#linear-gradient-25);
      }

      .cls-52 {
        fill: #eebcac;
      }

      .cls-53 {
        fill: #261b51;
      }

      .cls-54 {
        fill: url(#linear-gradient-26);
      }

      .cls-55 {
        fill: #251a52;
      }

      .cls-56 {
        fill: #e7e8ef;
      }

      .cls-57 {
        fill: #161561;
        stroke-width: 2px;
      }

      .cls-58 {
        fill: #21256c;
      }

      .cls-59 {
        fill: url(#linear-gradient-27);
      }

      .cls-60 {
        fill: url(#linear-gradient-28);
      }

      .cls-61 {
        fill: url(#linear-gradient-29);
      }

      .cls-62 {
        fill: #21256d;
      }

      .cls-63 {
        fill: #231a6b;
      }
    </style>
    <linearGradient id="linear-gradient" x1="556.96" y1="253.7" x2="760.58" y2="253.7" gradientUnits="userSpaceOnUse">
      <stop offset="0" stop-color="#593fff"/>
      <stop offset="1" stop-color="#974175"/>
    </linearGradient>
    <linearGradient id="linear-gradient-2" x1="466.89" y1="296.63" x2="698.18" y2="296.63" xlink:href="#linear-gradient"/>
    <clipPath id="clip-path">
      <rect id="_Rectangle_" data-name="&lt;Rectangle&gt;" class="cls-1" x="556.96" y="187.92" width="203.62" height="131.57" rx="4.25" ry="4.25"/>
    </clipPath>
    <linearGradient id="linear-gradient-4" x1="436.94" y1="294.83" x2="776.16" y2="294.83" xlink:href="#linear-gradient"/>
    <clipPath id="clip-path-2">
      <rect id="_Rectangle_2" data-name="&lt;Rectangle&gt;" class="cls-2" x="466.89" y="221.91" width="231.29" height="149.45" rx="4.25" ry="4.25"/>
    </clipPath>
    <linearGradient id="linear-gradient-6" x1="237.2" y1="211.8" x2="290.07" y2="211.8" xlink:href="#linear-gradient"/>
    <linearGradient id="linear-gradient-7" x1="322.93" y1="150.71" x2="346.69" y2="150.71" xlink:href="#linear-gradient"/>
    <linearGradient id="linear-gradient-8" x1="279.44" y1="265.16" x2="325.04" y2="265.16" gradientTransform="translate(-96.58 214.14) rotate(-33.97)" xlink:href="#linear-gradient"/>
    <linearGradient id="linear-gradient-9" x1="14.94" y1="201.16" x2="60.55" y2="201.16" gradientTransform="translate(65.8 -103.2) rotate(-33.97)" xlink:href="#linear-gradient"/>
    <linearGradient id="linear-gradient-10" x1="334.57" y1="62.33" x2="347.96" y2="62.33" xlink:href="#linear-gradient"/>
    <linearGradient id="linear-gradient-11" x1="334.57" y1="67.08" x2="347.96" y2="67.08" xlink:href="#linear-gradient"/>
    <linearGradient id="linear-gradient-12" x1="334.57" y1="71.83" x2="347.96" y2="71.83" xlink:href="#linear-gradient"/>
    <linearGradient id="linear-gradient-13" x1="151.38" y1="66.64" x2="161.04" y2="66.64" xlink:href="#linear-gradient"/>
    <linearGradient id="linear-gradient-14" x1="222.78" y1="64.7" x2="227.01" y2="64.7" xlink:href="#linear-gradient"/>
    <linearGradient id="linear-gradient-15" x1="227.53" y1="65.77" x2="232.86" y2="65.77" xlink:href="#linear-gradient"/>
    <linearGradient id="linear-gradient-16" x1="234.07" y1="65.71" x2="236.82" y2="65.71" xlink:href="#linear-gradient"/>
    <linearGradient id="linear-gradient-17" x1="237.3" y1="65.77" x2="242.12" y2="65.77" xlink:href="#linear-gradient"/>
    <linearGradient id="linear-gradient-18" x1="243.31" y1="65.71" x2="251.15" y2="65.71" xlink:href="#linear-gradient"/>
    <linearGradient id="linear-gradient-19" x1="255.04" y1="64.7" x2="256.27" y2="64.7" xlink:href="#linear-gradient"/>
    <linearGradient id="linear-gradient-20" x1="257.76" y1="66.83" x2="262.97" y2="66.83" xlink:href="#linear-gradient"/>
    <linearGradient id="linear-gradient-21" x1="263.84" y1="65.77" x2="267.42" y2="65.77" xlink:href="#linear-gradient"/>
    <linearGradient id="linear-gradient-22" x1="268.66" y1="65.83" x2="273.31" y2="65.83" xlink:href="#linear-gradient"/>
    <linearGradient id="linear-gradient-23" x1="274.87" y1="65.71" x2="282.71" y2="65.71" xlink:href="#linear-gradient"/>
    <linearGradient id="linear-gradient-24" x1="345.26" y1="34.84" x2="357.93" y2="34.84" xlink:href="#linear-gradient"/>
    <linearGradient id="linear-gradient-25" x1="145.6" y1="34.88" x2="168.88" y2="34.88" xlink:href="#linear-gradient"/>
    <linearGradient id="linear-gradient-26" x1="152.4" y1="228.89" x2="255.32" y2="228.89" xlink:href="#linear-gradient"/>
    <linearGradient id="linear-gradient-27" x1="168.67" y1="449.9" x2="201.71" y2="449.9" gradientTransform="translate(409.53 18.18) rotate(49.83)" xlink:href="#linear-gradient"/>
    <linearGradient id="linear-gradient-28" x1="248.16" y1="448.19" x2="256.56" y2="448.19" xlink:href="#linear-gradient"/>
    <linearGradient id="linear-gradient-29" x1="269.17" y1="448.19" x2="277.57" y2="448.19" xlink:href="#linear-gradient"/>
  </defs>
  <title>Skills</title>
  <g>
    <path class="cls-3" d="M737.09,312s-69-49.17-75.13-94.41,30.38-198.73-89.5-205.12-177.66,107.19-227,118.14-187.67,23.68-243.5,91S1.81,403.87,80.63,487.62,289.19,545.09,322,535.24s100.17-47.62,198.7-44.34c0,0,110.44,6.57,138.76-7s87.67-48.23,92.37-104.69C756.79,320.12,737.09,312,737.09,312Z"/>
    <g>
      <g id="InnerDashboard" class="cls-4">
        <g id="InnerScreen">
          <rect id="_Rectangle_3" data-name="&lt;Rectangle&gt;" class="cls-5" x="552.79" y="194.18" width="199.87" height="131.57" rx="4.25" ry="4.25"/>
          <g>
            <rect id="_Rectangle_4" data-name="&lt;Rectangle&gt;" class="cls-1" x="556.96" y="187.92" width="203.62" height="131.57" rx="4.25" ry="4.25"/>
            <g class="cls-6">
              <path class="cls-7" d="M549.39,199.93H759.71l-.13,109.19c0,5.33-3.82,10.23-9.14,10.37l-201,4.7Z"/>
            </g>
          </g>
        </g>
        <g id="InnerData">
          <g>
            <polygon class="cls-5" points="572.23 267.63 593.38 249.61 610.87 253.4 629.75 232.56 625.92 229.08 635.14 229.08 635.14 239 631.31 234.47 612 256.57 593.9 252.75 573.88 270.15 572.23 267.63"/>
            <rect class="cls-8" x="571.1" y="279.37" width="7.83" height="21.41"/>
            <rect class="cls-8" x="611.3" y="265.45" width="7.83" height="35.33"/>
            <rect class="cls-9" x="591.2" y="260.75" width="7.83" height="40.9"/>
            <rect class="cls-9" x="630.53" y="243.87" width="7.83" height="57.78"/>
            <g>
              <rect class="cls-9" x="650.63" y="278.26" width="5.74" height="5.74"/>
              <rect class="cls-8" x="650.63" y="289.16" width="5.74" height="5.74"/>
              <rect class="cls-10" x="658.51" y="279.85" width="19.58" height="2.57"/>
              <rect class="cls-10" x="658.51" y="290.34" width="19.58" height="2.57"/>
            </g>
            <g>
              <rect class="cls-9" x="686.13" y="278.26" width="5.74" height="5.74"/>
              <rect class="cls-8" x="686.13" y="289.16" width="5.74" height="5.74"/>
              <rect class="cls-10" x="694.01" y="279.85" width="19.58" height="2.57"/>
              <rect class="cls-10" x="694.01" y="290.34" width="19.58" height="2.57"/>
            </g>
            <g>
              <rect class="cls-9" x="717.33" y="278.26" width="5.74" height="5.74"/>
              <rect class="cls-8" x="717.33" y="289.16" width="5.74" height="5.74"/>
              <rect class="cls-10" x="725.2" y="279.85" width="19.58" height="2.57"/>
              <rect class="cls-10" x="725.2" y="290.34" width="19.58" height="2.57"/>
            </g>
            <g>
              <rect class="cls-11" x="652.72" y="216.2" width="84.58" height="2.44"/>
              <rect class="cls-11" x="652.72" y="220.12" width="84.58" height="2.44"/>
              <rect class="cls-12" x="652.37" y="224.55" width="84.58" height="4"/>
            </g>
            <g>
              <rect class="cls-11" x="652.72" y="230.82" width="84.58" height="2.44"/>
              <rect class="cls-11" x="652.72" y="234.73" width="84.58" height="2.44"/>
              <rect class="cls-12" x="652.37" y="239.17" width="84.58" height="6.27"/>
            </g>
            <g>
              <rect class="cls-11" x="652.55" y="246.57" width="84.58" height="2.44"/>
              <rect class="cls-11" x="652.55" y="250.48" width="84.58" height="2.44"/>
              <rect class="cls-12" x="652.2" y="254.92" width="84.58" height="7.22"/>
            </g>
          </g>
          <g>
            <rect class="cls-13" x="563.4" y="224.64" width="2.61" height="82.84"/>
            <rect class="cls-13" x="563.41" y="305.7" width="82.84" height="2.61"/>
            <rect class="cls-13" x="572.42" y="205.86" width="164.35" height="2.61"/>
          </g>
        </g>
        <g id="PowerLaptop">
          <circle class="cls-7" cx="718.2" cy="194.18" r="2.11"/>
          <circle class="cls-7" cx="730.34" cy="194.18" r="2.11"/>
          <circle class="cls-7" cx="741.56" cy="194.18" r="2.11"/>
        </g>
      </g>
      <rect class="cls-14" x="444.05" y="176.22" width="324.99" height="233.4"/>
      <g id="Laptop">
        <path class="cls-15" d="M761.53,172.27h-310a14.67,14.67,0,0,0-14.63,14.63V402.76a14.67,14.67,0,0,0,14.63,14.63h310a14.67,14.67,0,0,0,14.63-14.63V186.89A14.67,14.67,0,0,0,761.53,172.27Zm5.33,208.35a14.67,14.67,0,0,1-14.63,14.63H460.87a14.67,14.67,0,0,1-14.63-14.63v-187A14.67,14.67,0,0,1,460.87,179H752.23a14.67,14.67,0,0,1,14.63,14.63Z"/>
        <rect class="cls-16" x="555.94" y="416.4" width="102" height="19.17"/>
        <path class="cls-17" d="M604.18,450.4h-94c-.3-14.86,12.16-17.4,12.16-17.4H686s12.45,2.54,12.16,17.4Z"/>
      </g>
      <g id="InnerDashboard-2" data-name="InnerDashboard">
        <g id="InnerScreen-2" data-name="InnerScreen">
          <rect id="_Rectangle_5" data-name="&lt;Rectangle&gt;" class="cls-5" x="462.15" y="229.02" width="227.03" height="149.45" rx="4.25" ry="4.25"/>
          <g>
            <rect id="_Rectangle_6" data-name="&lt;Rectangle&gt;" class="cls-2" x="466.89" y="221.91" width="231.29" height="149.45" rx="4.25" ry="4.25"/>
            <g class="cls-18">
              <path class="cls-7" d="M458.29,235.55H697.18l-.14,124c0,6.05-4.33,11.62-10.38,11.78l-228.36,5.34Z"/>
            </g>
          </g>
        </g>
        <g id="InnerData-2" data-name="InnerData">
          <g>
            <polygon class="cls-5" points="484.23 312.45 508.25 291.99 528.12 296.29 549.57 272.61 545.22 268.66 555.7 268.66 555.7 279.93 551.35 274.79 529.4 299.89 508.84 295.54 486.11 315.31 484.23 312.45"/>
            <rect class="cls-8" x="482.95" y="325.79" width="8.9" height="24.31"/>
            <rect class="cls-8" x="528.61" y="309.97" width="8.9" height="40.13"/>
            <rect class="cls-9" x="505.78" y="304.64" width="8.9" height="46.45"/>
            <rect class="cls-9" x="550.46" y="285.46" width="8.9" height="65.63"/>
            <g>
              <rect class="cls-9" x="573.29" y="324.53" width="6.52" height="6.52"/>
              <rect class="cls-8" x="573.29" y="336.91" width="6.52" height="6.52"/>
              <rect class="cls-10" x="582.23" y="326.33" width="22.24" height="2.92"/>
              <rect class="cls-10" x="582.23" y="338.24" width="22.24" height="2.92"/>
            </g>
            <g>
              <rect class="cls-9" x="613.61" y="324.53" width="6.52" height="6.52"/>
              <rect class="cls-8" x="613.61" y="336.91" width="6.52" height="6.52"/>
              <rect class="cls-10" x="622.56" y="326.33" width="22.24" height="2.92"/>
              <rect class="cls-10" x="622.56" y="338.24" width="22.24" height="2.92"/>
            </g>
            <g>
              <rect class="cls-9" x="649.05" y="324.53" width="6.52" height="6.52"/>
              <rect class="cls-8" x="649.05" y="336.91" width="6.52" height="6.52"/>
              <rect class="cls-10" x="657.99" y="326.33" width="22.24" height="2.92"/>
              <rect class="cls-10" x="657.99" y="338.24" width="22.24" height="2.92"/>
            </g>
            <g>
              <rect class="cls-11" x="575.66" y="254.03" width="96.07" height="2.77"/>
              <rect class="cls-11" x="575.66" y="258.48" width="96.07" height="2.77"/>
              <rect class="cls-12" x="575.26" y="263.52" width="96.07" height="4.55"/>
            </g>
            <g>
              <rect class="cls-11" x="575.66" y="270.64" width="96.07" height="2.77"/>
              <rect class="cls-11" x="575.66" y="275.08" width="96.07" height="2.77"/>
              <rect class="cls-12" x="575.26" y="280.13" width="96.07" height="7.12"/>
            </g>
            <g>
              <rect class="cls-11" x="575.46" y="288.53" width="96.07" height="2.77"/>
              <rect class="cls-11" x="575.46" y="292.97" width="96.07" height="2.77"/>
              <rect class="cls-12" x="575.07" y="298.02" width="96.07" height="8.2"/>
            </g>
          </g>
          <g>
            <rect class="cls-13" x="474.2" y="263.62" width="2.97" height="94.1"/>
            <rect class="cls-13" x="474.21" y="355.69" width="94.1" height="2.97"/>
            <rect class="cls-13" x="484.45" y="242.29" width="186.69" height="2.97"/>
          </g>
        </g>
        <g id="PowerLaptop-2" data-name="PowerLaptop">
          <circle class="cls-7" cx="650.04" cy="229.02" r="2.4"/>
          <circle class="cls-7" cx="663.83" cy="229.02" r="2.4"/>
          <circle class="cls-7" cx="676.58" cy="229.02" r="2.4"/>
        </g>
      </g>
    </g>
    <g>
      <g id="Phone">
        <rect id="Background_White" data-name="Background White" class="cls-7" x="127.61" y="18.77" width="243.67" height="473.3" rx="13.75" ry="13.75"/>
        <g>
          <g>
            <path class="cls-19" d="M225.91,113.65h72.94a10.45,10.45,0,0,1,10.45,10.45v63.68H213.79v-62A12.12,12.12,0,0,1,225.91,113.65Z"/>
            <g>
              <path class="cls-20" d="M300.51,131.3s-3.56-2.61-11.88-2.61S268,144.61,259.89,146s-17.11-9.27-25.42-10.22-16.39,6.65-16.39,6.65a2.1,2.1,0,0,1-1.19-.87c-.55-.75,1.19-2.3,1.19-2.3s8.08-7.6,16.39-6.65,17.34,11.64,25.42,10.22,20.43-17.34,28.75-17.34,11.88,2.61,11.88,2.61S306.31,131.35,300.51,131.3Z"/>
              <rect class="cls-21" x="223.95" y="171.36" width="7.76" height="2.53"/>
              <rect class="cls-21" x="235.41" y="171.36" width="7.76" height="2.53"/>
              <rect class="cls-21" x="248.72" y="171.36" width="7.76" height="2.53"/>
              <rect class="cls-21" x="260.76" y="171.36" width="7.76" height="2.53"/>
              <rect class="cls-21" x="273.59" y="171.36" width="7.76" height="2.53"/>
              <rect class="cls-21" x="285.94" y="171.36" width="7.76" height="2.53"/>
              <rect class="cls-22" x="235.41" y="145.49" width="7.76" height="23.76"/>
              <rect class="cls-23" x="248.72" y="155.94" width="7.76" height="13.31"/>
              <rect class="cls-23" x="260.76" y="152.93" width="7.76" height="16.32"/>
              <rect class="cls-23" x="273.59" y="145.49" width="7.76" height="23.76"/>
              <rect class="cls-23" x="223.53" y="162.28" width="7.76" height="6.97"/>
              <rect class="cls-23" x="285.94" y="131.39" width="7.76" height="37.86"/>
            </g>
            <g id="Message_Box" data-name="Message Box">
              <polygon class="cls-8" points="256.48 127.59 254.34 122.52 226.78 122.52 226.78 98.44 282.22 98.44 282.22 122.68 258.14 122.68 258.14 128.85 256.48 127.59"/>
              <g>
                <circle class="cls-24" cx="237.55" cy="109.69" r="5.54"/>
                <rect class="cls-7" x="247.65" y="104.74" width="26.85" height="2.02"/>
                <rect class="cls-7" x="247.65" y="108.68" width="26.85" height="2.02"/>
                <rect class="cls-7" x="247.65" y="114.22" width="26.85" height="2.02"/>
              </g>
            </g>
          </g>
          <g>
            <rect class="cls-19" x="225.93" y="196.81" width="96.52" height="35.16"/>
            <path class="cls-25" d="M288.49,209s-2.18-1.6-7.28-1.6-12.66,9.75-17.61,10.62-10.48-5.68-15.57-6.26-10,4.07-10,4.07a1.29,1.29,0,0,1-.73-.53c-.34-.46.73-1.41.73-1.41s4.95-4.66,10-4.07,10.62,7.13,15.57,6.26,12.51-10.62,17.61-10.62,7.28,1.6,7.28,1.6S292,209,288.49,209Z"/>
            <rect class="cls-26" x="233.19" y="224.96" width="55.12" height="2.61"/>
            <rect class="cls-26" x="235.77" y="221.52" width="8.38" height="2.61"/>
            <rect class="cls-27" x="296.53" y="207.26" width="5.7" height="17.17"/>
            <rect class="cls-27" x="304.08" y="214.86" width="4.69" height="9.56"/>
            <rect class="cls-27" x="310.55" y="218.67" width="5.35" height="5.76"/>
          </g>
          <g>
            <rect class="cls-28" x="315.32" y="132.34" width="38.02" height="52.59" rx="2" ry="2"/>
            <path class="cls-29" d="M334.81,138.83a11.88,11.88,0,1,0,11.88,11.88A11.88,11.88,0,0,0,334.81,138.83Zm-.48,18.93a7.05,7.05,0,1,1,7.05-7.05A7.05,7.05,0,0,1,334.33,157.77Z"/>
            <rect class="cls-30" x="326.57" y="165.6" width="16.79" height="1.9"/>
            <rect class="cls-30" x="321.03" y="169.25" width="26.61" height="1.9"/>
            <rect class="cls-30" x="323.01" y="172.95" width="22.65" height="1.9"/>
          </g>
          <g>
            <polygon class="cls-28" points="191.85 143.81 192.06 135.85 203.13 135.85 203.13 111.43 161.99 123.15 161.99 137.41 188.76 137.41 191.85 143.81"/>
            <polygon class="cls-31" points="169.72 127.07 196.45 121.37 196.45 128.85 169 133.84 168.53 127.61 169.72 127.07"/>
            <polygon class="cls-32" points="198.41 116.48 199.32 113.71 200.63 116.7 202.62 116.7 200.52 118.26 199.79 120.56 198.63 118.26 196.33 117.68 198.41 116.48"/>
          </g>
          <g>
            <g>
              <rect class="cls-33" x="277.91" y="258.43" width="48.66" height="13.46" rx="2.93" ry="2.93" transform="translate(199.75 -123.62) rotate(33.97)"/>
              <rect class="cls-34" x="185.17" y="35.8" width="48.66" height="13.46" rx="2.93" ry="2.93" transform="translate(372.95 -95.25) rotate(128.39)"/>
              <circle class="cls-35" cx="245.57" cy="302.78" r="6.95"/>
            </g>
            <rect class="cls-36" x="334.57" y="60.9" width="13.38" height="2.85"/>
            <rect class="cls-37" x="334.57" y="65.65" width="13.38" height="2.85"/>
            <rect class="cls-38" x="334.57" y="70.4" width="13.38" height="2.85"/>
            <polygon class="cls-39" points="158.11 59.79 151.38 66.6 159.54 74.36 161.04 72.54 154.55 66.6 161.04 60.27 158.83 58.92 158.11 59.79"/>
            <g>
              <path class="cls-40" d="M222.78,60.9h1v6.78H227v.82h-4.23Z"/>
              <path class="cls-41" d="M232.86,65.73a2.67,2.67,0,0,1-2.72,2.9,2.6,2.6,0,0,1-2.62-2.81,2.67,2.67,0,0,1,2.71-2.9A2.59,2.59,0,0,1,232.86,65.73Zm-4.33.06c0,1.2.69,2.1,1.66,2.1s1.66-.89,1.66-2.12c0-.93-.46-2.1-1.64-2.1S228.53,64.75,228.53,65.78Z"/>
              <path class="cls-42" d="M234.12,64.75c0-.64,0-1.2,0-1.7h.87l0,1.07h0a1.64,1.64,0,0,1,1.51-1.2,1.09,1.09,0,0,1,.28,0v.94a1.52,1.52,0,0,0-.34,0,1.39,1.39,0,0,0-1.33,1.27,2.73,2.73,0,0,0,0,.46V68.5h-1Z"/>
              <path class="cls-43" d="M238.25,66a1.75,1.75,0,0,0,1.87,1.9,3.59,3.59,0,0,0,1.51-.28l.17.71a4.42,4.42,0,0,1-1.82.34,2.54,2.54,0,0,1-2.69-2.75,2.65,2.65,0,0,1,2.56-2.94,2.31,2.31,0,0,1,2.26,2.57,3.77,3.77,0,0,1,0,.46Zm2.91-.71a1.41,1.41,0,0,0-1.38-1.61,1.64,1.64,0,0,0-1.52,1.61Z"/>
              <path class="cls-44" d="M243.35,64.52c0-.56,0-1,0-1.48h.87l0,.88h0a1.88,1.88,0,0,1,1.72-1A1.61,1.61,0,0,1,247.52,64h0a2.26,2.26,0,0,1,.61-.71,1.86,1.86,0,0,1,1.21-.38c.72,0,1.79.47,1.79,2.37V68.5h-1V65.41c0-1-.38-1.68-1.18-1.68a1.29,1.29,0,0,0-1.17.9,1.66,1.66,0,0,0-.08.5V68.5h-1V65.23c0-.87-.38-1.5-1.14-1.5a1.48,1.48,0,0,0-1.31,1.48V68.5h-1Z"/>
              <path class="cls-45" d="M256.27,61.51a.61.61,0,0,1-1.23,0,.6.6,0,0,1,.62-.62A.59.59,0,0,1,256.27,61.51Zm-1.11,7V63h1V68.5Z"/>
              <path class="cls-46" d="M257.8,64.83c0-.7,0-1.26,0-1.78h.89l0,.94h0a2.15,2.15,0,0,1,1.94-1.06C262,62.92,263,64,263,65.69c0,2-1.2,2.93-2.48,2.93a1.92,1.92,0,0,1-1.68-.86h0v3h-1Zm1,1.46a2.19,2.19,0,0,0,0,.41,1.53,1.53,0,0,0,1.49,1.16c1,0,1.66-.86,1.66-2.11,0-1.09-.58-2-1.62-2a1.72,1.72,0,0,0-1.57,1.64Z"/>
              <path class="cls-47" d="M264.09,67.49a2.6,2.6,0,0,0,1.31.39c.72,0,1.06-.36,1.06-.81s-.28-.73-1-1c-1-.35-1.44-.89-1.44-1.55a1.68,1.68,0,0,1,1.88-1.6,2.73,2.73,0,0,1,1.34.34L267,64a2.13,2.13,0,0,0-1.12-.32c-.59,0-.91.34-.91.74s.33.65,1,.93c.95.36,1.43.84,1.43,1.65s-.75,1.64-2,1.64a3.1,3.1,0,0,1-1.53-.37Z"/>
              <path class="cls-48" d="M273.27,67c0,.56,0,1.06,0,1.49h-.88l-.06-.89h0a2.06,2.06,0,0,1-1.81,1c-.86,0-1.88-.47-1.88-2.39V63h1v3c0,1,.32,1.74,1.22,1.74a1.44,1.44,0,0,0,1.31-.9,1.47,1.47,0,0,0,.09-.51V63h1Z"/>
              <path class="cls-49" d="M274.92,64.52c0-.56,0-1,0-1.48h.87l0,.88h0a1.88,1.88,0,0,1,1.72-1A1.61,1.61,0,0,1,279.08,64h0a2.26,2.26,0,0,1,.61-.71,1.86,1.86,0,0,1,1.21-.38c.72,0,1.79.47,1.79,2.37V68.5h-1V65.41c0-1-.38-1.68-1.18-1.68a1.29,1.29,0,0,0-1.17.9,1.66,1.66,0,0,0-.08.5V68.5h-1V65.23c0-.87-.38-1.5-1.14-1.5a1.48,1.48,0,0,0-1.31,1.48V68.5h-1Z"/>
            </g>
            <polygon class="cls-50" points="345.26 33.02 345.26 38.25 355.88 38.25 355.88 35.63 357.94 35.63 357.94 33.81 355.64 33.81 355.64 31.44 345.26 31.44 345.26 33.02"/>
            <rect class="cls-51" x="145.6" y="32.86" width="23.28" height="4.04"/>
          </g>
          <g id="Human">
            <g>
              <path class="cls-52" d="M193.91,181.47l1.23-4.62,4-.07a2.83,2.83,0,0,0,2.78-2.92l-.5-15.07-19.25-.24,1.35,22.82Z"/>
              <path class="cls-53" d="M203.26,151.07s2.34,3.21-.87,7.13-7.13,3.33-7.48,5-2.38,2-1.31,4,2.14,1.78,2.14,1.78,1.07,4.51-4.28,4.75-6.53.83-7.72-1.66-4.75-4.63-4-11.29a11.15,11.15,0,0,1,7.72-9.74c2-.59,7.13.83,8.79,0s1.31-2.26,3.56-2.61S203.26,151.07,203.26,151.07Z"/>
            </g>
          </g>
          <g>
            <path id="_Path_" data-name="&lt;Path&gt;" class="cls-54" d="M208,312.46l3.15-110.54s22.81-7.6,30.89-24.71S253,158.68,253,158.68s3.8-5.46,1.66-8.55.65-7.13.65-7.13l-3-1.43s-16.63,33-30.65,36.59-11.64,4.28-14,3.56-28.27-4.28-37.78.71-18.53,32.31-17.34,43,16.63,6.42,16.63,6.42-3.09,7.6-.48,8.08-7.37,57.5-7.37,57.5L177.69,301l11.17-44.19,3.8-.48-.48,56.13,14.73,3.74Z"/>
            <path class="cls-55" d="M168.66,239.94l41.42.94-2,71.59-1.13,3.74-14.73-3.74.48-56.13-3.8.48L177.69,301l-16.39-3.56s7.53-48.3,7.66-52.06A21.73,21.73,0,0,0,168.66,239.94Z"/>
            <path class="cls-52" d="M249.83,163l-6.72-5.81,9.53-15.64,3.14,1.43a8.14,8.14,0,0,0-.68,7.13c1.4,4.35.07,6.69-1.73,8.55S250.14,161.52,249.83,163Z"/>
          </g>
          <g id="UnderHood">
            <path class="cls-56" d="M123.5,302.78s12.67-28.35,39.6-23,62.41,35.48,71.28,37.38,15.84,2.53,44.35-10.77,45.94-3.8,51,1.27S352.87,333,358.57,333h17.74v91.56H123.5Z"/>
            <path class="cls-57" d="M127,305.79a53,53,0,0,1,47.84-14.57c29.78,5.7,37.38,41.18,67.16,39s27.56-21.5,64.63-19.94,33.58,30.39,50.69,33.24,21.23,1.58,21.23,1.58l-3.8,127L127,479.71Z"/>
            <path class="cls-58" d="M123.5,451S134,435.36,153,434.41s26.14-2.85,52.75,19.48S257,470,267,464.82s21.86-17.58,44.67-15.21,37.54,18.93,50.85,20.16,13.78,0,13.78,0L351.6,499.51H148.21Z"/>
            <rect class="cls-59" x="164.76" y="444.2" width="40.87" height="11.4" rx="2.48" ry="2.48" transform="translate(-278.05 301.21) rotate(-49.83)"/>
            <circle class="cls-7" cx="230.74" cy="448.19" r="4.2"/>
            <circle class="cls-60" cx="252.36" cy="448.19" r="4.2"/>
            <circle class="cls-61" cx="273.37" cy="448.19" r="4.2"/>
            <ellipse class="cls-62" cx="341.78" cy="425.28" rx="14.1" ry="11.64" transform="translate(-200.61 366.24) rotate(-45)"/>
            <circle class="cls-7" cx="150.91" cy="367.72" r="2.85"/>
            <circle class="cls-7" cx="163.1" cy="397.18" r="2.02"/>
            <circle class="cls-7" cx="152.65" cy="390.85" r="2.02"/>
            <circle class="cls-7" cx="140.77" cy="394.17" r="2.02"/>
          </g>
        </g>
        <g id="Phone-2" data-name="Phone">
          <path class="cls-63" d="M342.57,6.41H159.14A40.51,40.51,0,0,0,118.75,46.8V464a40.51,40.51,0,0,0,40.39,40.39H342.57A40.51,40.51,0,0,0,383,464V46.8A40.51,40.51,0,0,0,342.57,6.41Zm29,459.68c0,15-16.06,27.24-31,27.24h-170a40.51,40.51,0,0,1-40.39-40.39v-395c0-22.22,18.18-36.59,40.39-36.59H327.36c22.22,0,44.19,14.37,44.19,36.59Z"/>
          <path class="cls-63" d="M179.26,17.55S178.63,33,197,34s107.08,0,107.08,0,11.4-1.8,13-16.42Z"/>
        </g>
      </g>
      <g>
        <path class="cls-7" d="M195.22,364.9a6.27,6.27,0,0,1-1.15,2.61,5.8,5.8,0,0,1-2.14,1.72,6.54,6.54,0,0,1-2.85.61,6.36,6.36,0,0,1-3.27-.84,6,6,0,0,1-2.25-2.33,7.37,7.37,0,0,1,0-6.71,5.78,5.78,0,0,1,2.24-2.3,6.51,6.51,0,0,1,3.29-.82,5,5,0,0,1,3.24,1,4.54,4.54,0,0,1,1.59,2.76h.05V357h1.26v5h-1.26a4.71,4.71,0,0,0-1.66-2.85,4.93,4.93,0,0,0-3.18-1,5.18,5.18,0,0,0-2.62.66,4.47,4.47,0,0,0-1.77,1.84,6.24,6.24,0,0,0,0,5.47,4.69,4.69,0,0,0,1.77,1.88,5,5,0,0,0,2.58.67,4.82,4.82,0,0,0,3.17-1.08,4.89,4.89,0,0,0,1.67-2.89Z"/>
        <path class="cls-7" d="M203.23,360.62V362a3.28,3.28,0,0,0-.71-.08,2.42,2.42,0,0,0-2,.93,4,4,0,0,0-.74,2.57v3.21h1.75v1h-4.79v-1h1.83v-6.88h-1.83v-1h3v2.72h.05a3.62,3.62,0,0,1,.93-2.1,2.57,2.57,0,0,1,1.92-.76A3.36,3.36,0,0,1,203.23,360.62Z"/>
        <path class="cls-7" d="M206.52,369.22a4.19,4.19,0,0,1-1.65-1.63,4.77,4.77,0,0,1-.59-2.39,4.87,4.87,0,0,1,.59-2.41,4.23,4.23,0,0,1,1.65-1.66,5.25,5.25,0,0,1,4.86,0,4.23,4.23,0,0,1,1.65,1.66,4.87,4.87,0,0,1,.59,2.41,4.78,4.78,0,0,1-.59,2.39,4.2,4.2,0,0,1-1.65,1.63,5.31,5.31,0,0,1-4.86,0Zm4.2-1a3.07,3.07,0,0,0,1.2-1.23,3.78,3.78,0,0,0,.43-1.83,3.86,3.86,0,0,0-.43-1.83,3.15,3.15,0,0,0-1.2-1.26,3.46,3.46,0,0,0-1.78-.45,3.42,3.42,0,0,0-1.77.45,3.14,3.14,0,0,0-1.2,1.26,3.86,3.86,0,0,0-.43,1.83A3.78,3.78,0,0,0,206,367a3.06,3.06,0,0,0,1.2,1.23,3.53,3.53,0,0,0,1.77.44A3.57,3.57,0,0,0,210.73,368.26Z"/>
        <path class="cls-7" d="M222,365.43a2.24,2.24,0,0,1,.8,1.82,2.36,2.36,0,0,1-.77,1.88,3.28,3.28,0,0,1-2.22.67,3.4,3.4,0,0,1-2-.55,2.3,2.3,0,0,1-.93-1.44h-.07v1.83h-1.21v-2.82h1.21a2.27,2.27,0,0,0,.9,1.45,3,3,0,0,0,1.86.55,2.51,2.51,0,0,0,1.53-.4,1.37,1.37,0,0,0,.54-1.16,1.26,1.26,0,0,0-.55-1.09,4.63,4.63,0,0,0-1.88-.59,6.1,6.1,0,0,1-2.72-1,2.07,2.07,0,0,1-.83-1.72,2.16,2.16,0,0,1,.75-1.72,3.07,3.07,0,0,1,2.08-.65,3,3,0,0,1,1.92.55,2.35,2.35,0,0,1,.84,1.42h.05v-1.8h1.21v2.76h-1.21a2.21,2.21,0,0,0-.84-1.41,2.76,2.76,0,0,0-1.75-.54,2.22,2.22,0,0,0-1.35.37,1.18,1.18,0,0,0-.5,1,1.13,1.13,0,0,0,.61,1,5.63,5.63,0,0,0,2,.59A5.5,5.5,0,0,1,222,365.43Z"/>
        <path class="cls-7" d="M231.2,365.43a2.24,2.24,0,0,1,.8,1.82,2.36,2.36,0,0,1-.77,1.88,3.28,3.28,0,0,1-2.22.67,3.4,3.4,0,0,1-2-.55,2.3,2.3,0,0,1-.93-1.44H226v1.83h-1.21v-2.82H226a2.27,2.27,0,0,0,.9,1.45,3,3,0,0,0,1.86.55,2.51,2.51,0,0,0,1.53-.4,1.37,1.37,0,0,0,.54-1.16,1.26,1.26,0,0,0-.55-1.09,4.63,4.63,0,0,0-1.88-.59,6.1,6.1,0,0,1-2.72-1,2.07,2.07,0,0,1-.83-1.72,2.16,2.16,0,0,1,.75-1.72,3.07,3.07,0,0,1,2.08-.65,3,3,0,0,1,1.92.55,2.35,2.35,0,0,1,.84,1.42h.05v-1.8h1.21v2.76h-1.21a2.21,2.21,0,0,0-.84-1.41,2.76,2.76,0,0,0-1.75-.54,2.22,2.22,0,0,0-1.35.37,1.18,1.18,0,0,0-.5,1,1.13,1.13,0,0,0,.61,1,5.63,5.63,0,0,0,2,.59A5.5,5.5,0,0,1,231.2,365.43Z"/>
        <path class="cls-7" d="M248.52,357.88a3,3,0,0,1,1.09,2.49,3.34,3.34,0,0,1-1,2.46,4.73,4.73,0,0,1-3.4,1h-3.43v4.68h2v1.14h-5.31v-1.14h2V358.15h-2V357h6.79A5.09,5.09,0,0,1,248.52,357.88Zm-1,4.26a2.23,2.23,0,0,0,0-3.41,3.87,3.87,0,0,0-2.29-.58h-3.46v4.57h3.48A3.82,3.82,0,0,0,247.55,362.15Z"/>
        <path class="cls-7" d="M255.28,368.61v1h-4.89v-1h1.83v-11.2h-1.83v-1h3v12.24Z"/>
        <path class="cls-7" d="M265.65,368.61v1h-1.82a.64.64,0,0,1-.52-.22.91.91,0,0,1-.18-.61v-2h-.05a3.2,3.2,0,0,1-3.46,2.94,3.2,3.2,0,0,1-2.12-.61,2.26,2.26,0,0,1-.72-1.83,2.21,2.21,0,0,1,.63-1.69,4.17,4.17,0,0,1,2.06-.88l3.67-.77v-.35q0-2-2.37-2a3,3,0,0,0-1.72.43,2.11,2.11,0,0,0-.82,1.34l-1.16-.25a3,3,0,0,1,1.17-2,4.42,4.42,0,0,1,2.58-.65,4.09,4.09,0,0,1,2.64.73,2.78,2.78,0,0,1,.89,2.28v5.06Zm-3.41-.9a4.09,4.09,0,0,0,.93-2.87l-3.52.79a2.53,2.53,0,0,0-1.24.57,1.42,1.42,0,0,0-.4,1.06q0,1.46,1.77,1.46A3.17,3.17,0,0,0,262.25,367.71Z"/>
        <path class="cls-7" d="M270.55,368.7a1,1,0,0,0,.82-.36,1.66,1.66,0,0,0,.29-1.05v-.84h1.08v.84q0,2.52-2.2,2.52a2.15,2.15,0,0,1-1.72-.66,2.78,2.78,0,0,1-.56-1.87v-5.55h-1.6v-1h1.6v-2.27h1.21v2.27h3.16v1h-3.16v5.55Q269.46,368.7,270.55,368.7Z"/>
        <path class="cls-7" d="M274.23,368.61H276v-6.88h-1.77v-1H276v-1.4a3.24,3.24,0,0,1,.75-2.29,2.89,2.89,0,0,1,2.23-.81,2.51,2.51,0,0,1,2.79,2.1l-1.08.34a1.59,1.59,0,0,0-1.72-1.33q-1.77,0-1.77,2v1.4h3v1h-3v6.88h2.15v1h-5.13Z"/>
        <path class="cls-7" d="M283.73,369.22a4.19,4.19,0,0,1-1.65-1.63,4.77,4.77,0,0,1-.59-2.39,4.87,4.87,0,0,1,.59-2.41,4.23,4.23,0,0,1,1.65-1.66,5.25,5.25,0,0,1,4.86,0,4.23,4.23,0,0,1,1.65,1.66,4.87,4.87,0,0,1,.59,2.41,4.78,4.78,0,0,1-.59,2.39,4.2,4.2,0,0,1-1.65,1.63,5.31,5.31,0,0,1-4.86,0Zm4.2-1a3.07,3.07,0,0,0,1.2-1.23,3.78,3.78,0,0,0,.43-1.83,3.86,3.86,0,0,0-.43-1.83,3.15,3.15,0,0,0-1.2-1.26,3.46,3.46,0,0,0-1.78-.45,3.42,3.42,0,0,0-1.77.45,3.14,3.14,0,0,0-1.2,1.26,3.86,3.86,0,0,0-.43,1.83,3.78,3.78,0,0,0,.43,1.83,3.06,3.06,0,0,0,1.2,1.23,3.53,3.53,0,0,0,1.77.44A3.57,3.57,0,0,0,287.94,368.26Z"/>
        <path class="cls-7" d="M299.07,360.62V362a3.28,3.28,0,0,0-.71-.08,2.42,2.42,0,0,0-2,.93,4,4,0,0,0-.74,2.57v3.21h1.75v1h-4.79v-1h1.83v-6.88h-1.83v-1h3v2.72h.05a3.62,3.62,0,0,1,.93-2.1,2.57,2.57,0,0,1,1.92-.76A3.36,3.36,0,0,1,299.07,360.62Z"/>
        <path class="cls-7" d="M317.12,368.61v1h-4.49v-1h1.56v-4.69a2.7,2.7,0,0,0-.5-1.75,1.83,1.83,0,0,0-1.5-.61,2.6,2.6,0,0,0-1.49.44,2.91,2.91,0,0,0-1,1.26,4.72,4.72,0,0,0-.37,2v3.4H311v1h-4.52v-1h1.58v-4.69a2.7,2.7,0,0,0-.5-1.75,1.83,1.83,0,0,0-1.51-.61,2.6,2.6,0,0,0-1.49.44,2.91,2.91,0,0,0-1,1.26,4.74,4.74,0,0,0-.37,2v3.4h1.6v1h-4.59v-1H302v-6.88h-1.78v-1h3v2.71h.05a3.35,3.35,0,0,1,1.07-2.17,3.24,3.24,0,0,1,2.18-.74,2.61,2.61,0,0,1,2,.75,3.37,3.37,0,0,1,.78,2.16h.07a3.35,3.35,0,0,1,1.07-2.17,3.21,3.21,0,0,1,2.16-.74,2.58,2.58,0,0,1,2.09.83,3.61,3.61,0,0,1,.7,2.38v4.89Z"/>
        <path class="cls-7" d="M251.17,377.19v1.14H250l-3.87,11.5h-1.5l-3.36-9.91h-.08l-3.41,9.91h-1.48l-3.85-11.5h-1.18v-1.14h5v1.14h-2.54l3.3,10h.07l3.46-10h-2.17v-1.14h5.68v1.14H242l3.41,10h.08l3.31-10h-2.64v-1.14Z"/>
        <path class="cls-7" d="M255.85,388.79v1h-4.74v-1h1.82v-6.88h-1.82v-1h3v7.9Zm-1.6-11.69v1.62h-1.56V377.1Z"/>
        <path class="cls-7" d="M262,388.79v1h-4.89v-1h1.83v-11.2h-1.83v-1h3v12.24Z"/>
        <path class="cls-7" d="M267.94,388.79v1H263v-1h1.83v-11.2H263v-1h3v12.24Z"/>
        <path class="cls-7" d="M188.16,398.52v10.36h2V410h-5.43v-1.14h2.15V398.52h-.07L182.3,410h-1.23l-4.51-11.5h-.07v10.36h2.1V410h-5.31v-1.14h2V398.52h-2v-1.14h4.15l4.29,11L186,397.42v-.05h4.14v1.14Z"/>
        <path class="cls-7" d="M200.43,409v1h-1.82a.64.64,0,0,1-.52-.22.91.91,0,0,1-.18-.61v-2h-.05a3.2,3.2,0,0,1-3.46,2.94,3.2,3.2,0,0,1-2.12-.61,2.26,2.26,0,0,1-.72-1.83,2.21,2.21,0,0,1,.63-1.69,4.17,4.17,0,0,1,2.06-.88l3.67-.77V404q0-2-2.37-2a3,3,0,0,0-1.72.43,2.11,2.11,0,0,0-.82,1.34l-1.16-.25a3,3,0,0,1,1.17-2,4.42,4.42,0,0,1,2.58-.65,4.09,4.09,0,0,1,2.64.73,2.78,2.78,0,0,1,.89,2.28V409Zm-3.41-.9a4.09,4.09,0,0,0,.93-2.87l-3.52.79a2.53,2.53,0,0,0-1.24.57,1.42,1.42,0,0,0-.4,1.06q0,1.46,1.77,1.46A3.17,3.17,0,0,0,197,408.08Z"/>
        <path class="cls-7" d="M212.49,409v1h-4.61v-1h1.93l-2.72-3.65-2.46,2V409h1.58v1h-4.59v-1h1.8v-11.2h-1.8v-1h3v9.4l4.88-4h-2.74v-1h5.58v1H211.1L208,404.62l3.36,4.36Z"/>
        <path class="cls-7" d="M220.41,401.49a4,4,0,0,1,1.52,1.63,5.17,5.17,0,0,1,.54,2.41c0,.11,0,.2,0,.26s0,.11,0,.14h-7.59a3.38,3.38,0,0,0,1,2.27,3.16,3.16,0,0,0,2.3.86,3.33,3.33,0,0,0,1.82-.5,3,3,0,0,0,1.17-1.37l1.16.44a3.94,3.94,0,0,1-1.6,1.87,5.16,5.16,0,0,1-4.93.09,4,4,0,0,1-1.58-1.63,5.47,5.47,0,0,1,0-4.8,4.08,4.08,0,0,1,1.57-1.66,4.52,4.52,0,0,1,2.33-.6A4.42,4.42,0,0,1,220.41,401.49Zm.85,3.51a3.43,3.43,0,0,0-1-2.19,3,3,0,0,0-2.19-.82,3.07,3.07,0,0,0-2.19.82,3.42,3.42,0,0,0-1,2.19Z"/>
        <path class="cls-7" d="M241.32,397.37v1.14h-1.18l-4.52,5.87v4.49h2V410h-5.31v-1.14h2v-4.51l-4.51-5.85h-1.18v-1.14h5v1.14h-2.32l3.65,4.76h.1l3.65-4.76h-2.49v-1.14Z"/>
        <path class="cls-7" d="M242.11,409.58a4.19,4.19,0,0,1-1.65-1.63,4.77,4.77,0,0,1-.59-2.39,4.87,4.87,0,0,1,.59-2.41,4.23,4.23,0,0,1,1.65-1.66,5.25,5.25,0,0,1,4.86,0,4.23,4.23,0,0,1,1.65,1.66,4.87,4.87,0,0,1,.59,2.41,4.78,4.78,0,0,1-.59,2.39,4.2,4.2,0,0,1-1.65,1.63,5.31,5.31,0,0,1-4.86,0Zm4.2-1a3.07,3.07,0,0,0,1.2-1.23,3.78,3.78,0,0,0,.43-1.83,3.86,3.86,0,0,0-.43-1.83,3.15,3.15,0,0,0-1.2-1.26,3.46,3.46,0,0,0-1.78-.45,3.42,3.42,0,0,0-1.77.45,3.14,3.14,0,0,0-1.2,1.26,3.86,3.86,0,0,0-.43,1.83,3.78,3.78,0,0,0,.43,1.83,3.06,3.06,0,0,0,1.2,1.23,3.53,3.53,0,0,0,1.77.44A3.57,3.57,0,0,0,246.31,408.62Z"/>
        <path class="cls-7" d="M261.3,409v1h-3v-2.72h-.05a3.43,3.43,0,0,1-1.1,2.17,3.28,3.28,0,0,1-2.21.76,2.63,2.63,0,0,1-2.14-.84,3.64,3.64,0,0,1-.71-2.4V402.1h-1.61v-1h2.83v5.7a2.7,2.7,0,0,0,.5,1.75,1.85,1.85,0,0,0,1.53.62,2.75,2.75,0,0,0,1.53-.44,2.9,2.9,0,0,0,1.05-1.26,4.63,4.63,0,0,0,.38-2v-3.4h-1.73v-1h2.94V409Z"/>
        <path class="cls-7" d="M279.5,398.52v10.36h2V410h-5.31v-1.14h2V404.2h-7.6v4.68h2V410h-5.31v-1.14h2V398.52h-2v-1.14h5.31v1.14h-2v4.57h7.6v-4.57h-2v-1.14h5.31v1.14Z"/>
        <path class="cls-7" d="M291.77,409v1H290a.64.64,0,0,1-.52-.22.91.91,0,0,1-.18-.61v-2h-.05a3.2,3.2,0,0,1-3.46,2.94,3.2,3.2,0,0,1-2.12-.61,2.26,2.26,0,0,1-.72-1.83,2.21,2.21,0,0,1,.63-1.69,4.17,4.17,0,0,1,2.06-.88l3.67-.77V404q0-2-2.37-2a3,3,0,0,0-1.72.43,2.11,2.11,0,0,0-.82,1.34l-1.16-.25a3,3,0,0,1,1.17-2,4.42,4.42,0,0,1,2.58-.65,4.09,4.09,0,0,1,2.64.73,2.78,2.78,0,0,1,.89,2.28V409Zm-3.41-.9a4.09,4.09,0,0,0,.93-2.87l-3.52.79a2.53,2.53,0,0,0-1.24.57,1.42,1.42,0,0,0-.4,1.06q0,1.46,1.77,1.46A3.17,3.17,0,0,0,288.37,408.08Z"/>
        <path class="cls-7" d="M301.71,401.48a4.1,4.1,0,0,1,1.52,1.66,5.56,5.56,0,0,1,0,4.81,4,4,0,0,1-1.55,1.65,4.47,4.47,0,0,1-2.31.59,4.07,4.07,0,0,1-1.94-.46,4,4,0,0,1-1.44-1.32v4.1h1.77v1H293v-1h1.8V402.1H293v-1h3v2.59H296a3.53,3.53,0,0,1,1.14-2,3.39,3.39,0,0,1,2.32-.78A4.14,4.14,0,0,1,301.71,401.48Zm-.73,7.16a3,3,0,0,0,1.15-1.25,4.08,4.08,0,0,0,.4-1.85,4,4,0,0,0-.42-1.85,3.14,3.14,0,0,0-1.17-1.26,3.49,3.49,0,0,0-3.44,0,3,3,0,0,0-1.14,1.26,4.12,4.12,0,0,0-.4,1.87,3.66,3.66,0,0,0,.88,2.56,3.08,3.08,0,0,0,2.4,1A3.34,3.34,0,0,0,301,408.65Z"/>
        <path class="cls-7" d="M313.62,401.48a4.1,4.1,0,0,1,1.52,1.66,5.56,5.56,0,0,1,0,4.81,4,4,0,0,1-1.55,1.65,4.47,4.47,0,0,1-2.31.59,4.07,4.07,0,0,1-1.94-.46,4,4,0,0,1-1.44-1.32v4.1h1.77v1h-4.78v-1h1.8V402.1h-1.8v-1h3v2.59H308a3.53,3.53,0,0,1,1.14-2,3.39,3.39,0,0,1,2.32-.78A4.14,4.14,0,0,1,313.62,401.48Zm-.73,7.16A3,3,0,0,0,314,407.4a4.08,4.08,0,0,0,.4-1.85,4,4,0,0,0-.42-1.85,3.14,3.14,0,0,0-1.17-1.26,3.49,3.49,0,0,0-3.44,0,3,3,0,0,0-1.14,1.26,4.12,4.12,0,0,0-.4,1.87,3.66,3.66,0,0,0,.88,2.56,3.08,3.08,0,0,0,2.4,1A3.34,3.34,0,0,0,312.89,408.65Z"/>
        <path class="cls-7" d="M326.57,401.07v1l-1.11,0-3.7,9.1a3.66,3.66,0,0,1-1.43,1.73,4.3,4.3,0,0,1-2.34.61h-.87v-1.08H318a3.36,3.36,0,0,0,1.66-.4,2.24,2.24,0,0,0,1-1.14l.32-.79-3.31-8.06h-1.24v-1h4.27v1H319l2.64,6.58h0l2.59-6.58H322.4v-1Z"/>
      </g>
    </g>
  </g>
</svg>
